<svg width="486" height="194" viewBox="0 0 486 194" fill="none" xmlns="http://www.w3.org/2000/svg">
<path d="M244.555 193.586C375.9 193.586 482.376 186.545 482.376 177.86C482.376 169.174 375.9 162.133 244.555 162.133C113.21 162.133 6.7334 169.174 6.7334 177.86C6.7334 186.545 113.21 193.586 244.555 193.586Z" fill="#F2F2F2"/>
<path d="M239.439 5.69531C200.691 5.69531 172.871 30.527 172.871 88.4675C172.871 154.133 200.691 171.516 239.439 171.516C278.187 171.516 307.664 152.478 307.664 88.4675C307.664 20.0425 278.187 5.69531 239.439 5.69531ZM239.694 149.719C212.856 149.719 198.835 133.992 198.835 88.5099C198.835 48.379 213.43 27.2161 240.268 27.2161C267.105 27.2161 281.7 41.1172 281.7 88.5099C281.7 132.845 266.531 149.719 239.694 149.719Z" fill="#2F2E41"/>
<path d="M145.669 125.713H129.649V78.5896C129.649 76.0866 128.653 73.6862 126.881 71.9164C125.11 70.1465 122.707 69.1523 120.201 69.1523H116.447C115.206 69.1523 113.978 69.3964 112.831 69.8706C111.685 70.3449 110.644 71.04 109.766 71.9164C108.889 72.7927 108.193 73.8331 107.718 74.9781C107.243 76.1231 106.999 77.3503 106.999 78.5896V125.713H61.8107C60.8811 125.713 59.9673 125.473 59.1579 125.017C58.3485 124.56 57.671 123.902 57.1911 123.107C56.7113 122.311 56.4454 121.405 56.4192 120.477C56.3931 119.549 56.6075 118.63 57.0418 117.809L104.869 27.3887C105.465 26.2614 105.826 25.0251 105.931 23.7544C106.036 22.4837 105.882 21.205 105.478 19.9955C105.074 18.7859 104.43 17.6706 103.582 16.7169C102.735 15.7632 101.704 14.9908 100.549 14.4463L97.726 13.1146C95.5338 12.0805 93.0274 11.9278 90.7256 12.6881C88.4237 13.4484 86.5026 15.0635 85.3597 17.1992L27.0285 126.197C26.0352 128.053 25.5156 130.125 25.5156 132.23C25.5156 133.91 25.8469 135.574 26.4908 137.127C27.1346 138.68 28.0782 140.09 29.2679 141.279C30.4575 142.467 31.8698 143.41 33.4241 144.053C34.9784 144.696 36.6443 145.027 38.3267 145.027H106.999V174.825C106.999 176.31 107.292 177.781 107.861 179.154C108.43 180.526 109.264 181.773 110.316 182.824C111.368 183.874 112.616 184.707 113.99 185.276C115.364 185.844 116.837 186.137 118.324 186.137H118.324C119.811 186.137 121.284 185.844 122.658 185.276C124.032 184.707 125.28 183.874 126.332 182.824C127.383 181.773 128.217 180.526 128.787 179.154C129.356 177.781 129.649 176.31 129.649 174.825V145.027H145.669C148.233 145.027 150.692 144.009 152.505 142.198C154.318 140.387 155.337 137.931 155.337 135.37C155.337 132.809 154.318 130.353 152.505 128.542C150.692 126.731 148.233 125.713 145.669 125.713Z" fill="#015294"/>
<path d="M442.324 125.713H426.304V78.5896C426.304 76.0866 425.308 73.6862 423.537 71.9164C421.765 70.1465 419.362 69.1523 416.856 69.1523H413.102C411.861 69.1523 410.633 69.3964 409.486 69.8706C408.34 70.3449 407.299 71.04 406.421 71.9164C405.544 72.7927 404.848 73.8331 404.373 74.9781C403.898 76.1231 403.654 77.3503 403.654 78.5896V125.713H358.466C357.536 125.713 356.622 125.473 355.813 125.017C355.004 124.56 354.326 123.902 353.846 123.107C353.366 122.311 353.1 121.405 353.074 120.477C353.048 119.549 353.263 118.63 353.697 117.809L401.524 27.3887C402.12 26.2614 402.481 25.0251 402.586 23.7544C402.691 22.4837 402.537 21.205 402.133 19.9955C401.729 18.7859 401.085 17.6706 400.238 16.7169C399.39 15.7632 398.359 14.9908 397.204 14.4463L394.381 13.1146C392.189 12.0805 389.682 11.9278 387.381 12.6881C385.079 13.4484 383.158 15.0635 382.015 17.1992L323.684 126.197C322.69 128.053 322.171 130.125 322.171 132.23C322.171 135.624 323.52 138.879 325.923 141.279C328.326 143.678 331.584 145.027 334.982 145.027H403.654V174.825C403.654 177.825 404.847 180.702 406.971 182.824C409.095 184.945 411.975 186.137 414.979 186.137C417.982 186.137 420.863 184.945 422.987 182.824C425.111 180.702 426.304 177.825 426.304 174.825V145.027H442.324C444.888 145.027 447.347 144.009 449.16 142.198C450.973 140.387 451.992 137.931 451.992 135.37C451.992 132.809 450.973 130.353 449.16 128.542C447.347 126.731 444.888 125.713 442.324 125.713Z" fill="#015294"/>
<path d="M154.089 120.198H138.069V73.0739C138.069 71.8346 137.824 70.6074 137.35 69.4624C136.875 68.3174 136.179 67.2771 135.301 66.4007C134.424 65.5244 133.383 64.8293 132.236 64.355C131.09 63.8807 129.862 63.6366 128.621 63.6366H124.867C122.361 63.6366 119.958 64.6309 118.186 66.4007C116.414 68.1706 115.419 70.571 115.419 73.0739V120.198H70.2307C69.3011 120.198 68.3872 119.958 67.5778 119.501C66.7684 119.044 66.091 118.386 65.6111 117.591C65.1313 116.796 64.8654 115.89 64.8392 114.962C64.8131 114.033 65.0275 113.114 65.4618 112.293L113.289 21.8731C113.885 20.7458 114.246 19.5095 114.351 18.2388C114.456 16.9681 114.302 15.6894 113.898 14.4798C113.494 13.2703 112.85 12.155 112.002 11.2013C111.155 10.2475 110.124 9.47513 108.969 8.93071L106.146 7.59896C103.954 6.56487 101.447 6.41218 99.1456 7.17247C96.8438 7.93277 94.9226 9.54785 93.7797 11.6836L35.4485 120.681C34.4552 122.537 33.9355 124.61 33.9355 126.714V126.714C33.9355 130.108 35.2853 133.363 37.6879 135.763C40.0904 138.163 43.349 139.511 46.7467 139.511H115.419V169.309C115.419 170.795 115.712 172.266 116.281 173.638C116.85 175.01 117.684 176.258 118.736 177.308C119.788 178.358 121.036 179.192 122.41 179.76C123.784 180.329 125.257 180.621 126.744 180.621H126.744C129.747 180.621 132.628 179.429 134.752 177.308C136.876 175.187 138.069 172.309 138.069 169.309V139.511H154.089C155.359 139.511 156.616 139.261 157.789 138.776C158.962 138.291 160.027 137.579 160.925 136.683C161.823 135.786 162.535 134.721 163.021 133.55C163.507 132.378 163.757 131.122 163.757 129.854V129.854C163.757 128.586 163.507 127.33 163.021 126.159C162.535 124.987 161.823 123.923 160.925 123.026C160.027 122.129 158.962 121.418 157.789 120.933C156.616 120.447 155.359 120.198 154.089 120.198V120.198Z" stroke="#3F3D56" stroke-miterlimit="10"/>
<path d="M450.611 120.198H434.591V73.0739C434.591 70.571 433.595 68.1706 431.823 66.4007C430.052 64.6309 427.649 63.6366 425.143 63.6366H421.389C420.148 63.6366 418.92 63.8807 417.773 64.355C416.627 64.8293 415.586 65.5244 414.708 66.4007C413.831 67.2771 413.135 68.3174 412.66 69.4624C412.185 70.6074 411.941 71.8346 411.941 73.0739V120.198H366.753C365.823 120.198 364.909 119.958 364.1 119.501C363.29 119.044 362.613 118.386 362.133 117.591C361.653 116.796 361.387 115.89 361.361 114.962C361.335 114.033 361.55 113.114 361.984 112.293L409.811 21.8731C410.407 20.7458 410.768 19.5095 410.873 18.2388C410.978 16.9681 410.824 15.6894 410.42 14.4798C410.016 13.2703 409.372 12.155 408.524 11.2013C407.677 10.2475 406.646 9.47513 405.491 8.93071L402.668 7.59896C400.476 6.56487 397.969 6.41218 395.668 7.17247C393.366 7.93277 391.445 9.54785 390.302 11.6836L331.97 120.681C330.977 122.537 330.458 124.61 330.458 126.714C330.458 130.108 331.807 133.363 334.21 135.763C336.612 138.163 339.871 139.511 343.269 139.511H411.941V169.309C411.941 172.309 413.134 175.187 415.258 177.308C417.382 179.429 420.262 180.621 423.266 180.621V180.621C426.269 180.621 429.15 179.429 431.274 177.308C433.398 175.187 434.591 172.309 434.591 169.309V139.511H450.611C451.881 139.511 453.138 139.261 454.311 138.776C455.484 138.291 456.549 137.579 457.447 136.683C458.345 135.786 459.057 134.721 459.543 133.55C460.029 132.378 460.279 131.122 460.279 129.854V129.854C460.279 127.293 459.26 124.837 457.447 123.026C455.634 121.215 453.175 120.198 450.611 120.198V120.198Z" stroke="#3F3D56" stroke-miterlimit="10"/>
<path d="M248.279 0.726562C209.531 0.726562 181.711 25.5582 181.711 83.4987C181.711 149.165 209.531 166.547 248.279 166.547C287.026 166.547 316.504 147.509 316.504 83.4987C316.504 15.0737 287.026 0.726562 248.279 0.726562ZM248.534 144.75C221.696 144.75 207.675 129.023 207.675 83.5411C207.675 43.4102 222.27 22.2473 249.107 22.2473C275.945 22.2473 290.54 36.1484 290.54 83.5411C290.54 127.876 275.371 144.75 248.534 144.75V144.75Z" stroke="#3F3D56" stroke-miterlimit="10"/>
<path d="M454.748 119.424C456.114 119.92 457.576 120.092 459.02 119.927C460.464 119.762 461.85 119.265 463.068 118.473C464.287 117.682 465.304 116.619 466.041 115.368C466.778 114.117 467.214 112.712 467.315 111.264C467.416 109.816 467.178 108.365 466.621 107.024C466.065 105.683 465.204 104.49 464.106 103.538C463.009 102.586 461.706 101.902 460.298 101.539C458.891 101.177 457.419 101.146 455.998 101.448L456.233 106.272L453.948 102.138C451.705 103.191 449.973 105.089 449.131 107.417C448.832 108.233 448.65 109.086 448.591 109.953C448.447 111.985 448.97 114.009 450.081 115.719C451.192 117.428 452.831 118.728 454.748 119.424Z" fill="#B0CADF"/>
<path d="M466.054 175.378C465.248 171.275 468.743 167.638 472.195 165.274C475.648 162.909 479.682 160.586 480.86 156.574C482.552 150.808 477.51 145.527 473.585 140.974C470.673 137.594 468.172 133.882 466.135 129.914C465.319 128.324 464.568 126.661 464.353 124.886C464.044 122.33 464.866 119.786 465.694 117.348C468.453 109.227 471.403 101.173 474.544 93.1875" stroke="#3F3D56" stroke-miterlimit="10"/>
<path d="M455.135 118.182C456.5 118.677 457.963 118.85 459.407 118.685C460.85 118.52 462.236 118.022 463.454 117.231C464.673 116.44 465.691 115.377 466.428 114.126C467.165 112.875 467.601 111.47 467.701 110.022C467.802 108.574 467.564 107.122 467.008 105.782C466.451 104.441 465.59 103.247 464.493 102.296C463.395 101.344 462.092 100.66 460.685 100.297C459.278 99.9346 457.805 99.9033 456.384 100.206L456.619 105.03L454.334 100.896C452.092 101.948 450.359 103.847 449.517 106.175C449.219 106.99 449.037 107.844 448.978 108.71C448.833 110.743 449.356 112.767 450.468 114.476C451.579 116.185 453.217 117.486 455.135 118.182V118.182Z" stroke="#3F3D56" stroke-miterlimit="10"/>
<path d="M464.907 91.5217C465.443 90.0444 466.343 88.7258 467.523 87.6871C468.703 86.6484 470.126 85.9232 471.661 85.5782L472.434 90.1644L473.866 85.3477C475.855 85.3771 477.783 86.0371 479.371 87.2324C480.96 88.4277 482.127 90.0964 482.705 91.9975C483.282 93.8987 483.24 95.934 482.584 97.8096C481.928 99.6851 480.692 101.304 479.055 102.432C477.418 103.56 475.464 104.14 473.476 104.087C471.488 104.033 469.568 103.35 467.993 102.136C466.419 100.922 465.272 99.2397 464.717 97.3318C464.162 95.4239 464.229 93.3893 464.907 91.5217H464.907Z" fill="#B0CADF"/>
<path d="M465.422 89.8654C465.958 88.3882 466.857 87.0695 468.038 86.0308C469.218 84.9922 470.641 84.2669 472.176 83.9219L472.948 88.5081L474.38 83.6914C476.369 83.7209 478.297 84.3809 479.886 85.5761C481.475 86.7714 482.642 88.4401 483.219 90.3413C483.797 92.2425 483.754 94.2777 483.098 96.1533C482.442 98.0288 481.206 99.6476 479.569 100.776C477.932 101.904 475.978 102.483 473.99 102.43C472.002 102.377 470.082 101.694 468.508 100.48C466.933 99.2659 465.786 97.5835 465.231 95.6756C464.677 93.7676 464.743 91.733 465.422 89.8654H465.422Z" stroke="#3F3D56" stroke-miterlimit="10"/>
<path d="M471.937 141.067C474.103 141.852 476.482 141.813 478.621 140.958C480.76 140.104 482.51 138.492 483.536 136.432C484.562 134.371 484.794 132.005 484.186 129.785C483.578 127.566 482.174 125.647 480.241 124.394L479.14 128.096L478.36 123.456C478.352 123.452 478.344 123.449 478.336 123.447C477.178 123.026 475.948 122.838 474.716 122.892C473.485 122.946 472.276 123.243 471.159 123.764C470.043 124.285 469.04 125.021 468.208 125.93C467.376 126.838 466.731 127.901 466.311 129.059C465.891 130.216 465.703 131.445 465.758 132.675C465.813 133.905 466.111 135.112 466.633 136.227C467.156 137.343 467.893 138.344 468.803 139.174C469.713 140.005 470.778 140.648 471.937 141.067H471.937Z" fill="#B0CADF"/>
<path d="M472.383 139.388C474.549 140.172 476.929 140.134 479.068 139.279C481.207 138.424 482.956 136.813 483.983 134.752C485.009 132.691 485.24 130.326 484.633 128.106C484.025 125.886 482.621 123.967 480.688 122.715L479.587 126.416L478.806 121.776C478.799 121.772 478.791 121.769 478.783 121.767C477.624 121.346 476.394 121.158 475.163 121.212C473.931 121.267 472.723 121.563 471.606 122.084C470.489 122.605 469.486 123.341 468.654 124.25C467.822 125.158 467.178 126.222 466.757 127.379C466.337 128.537 466.149 129.766 466.205 130.996C466.26 132.226 466.557 133.433 467.08 134.548C467.602 135.663 468.339 136.664 469.249 137.495C470.159 138.325 471.224 138.968 472.383 139.388H472.383Z" stroke="#3F3D56" stroke-miterlimit="10"/>
<path d="M462.169 156.63C462.541 158.747 463.631 160.671 465.255 162.08C466.879 163.49 468.939 164.298 471.09 164.371C473.24 164.443 475.35 163.775 477.065 162.478C478.781 161.181 479.998 159.334 480.512 157.247C481.026 155.16 480.806 152.96 479.889 151.016C478.972 149.072 477.414 147.502 475.476 146.569C473.537 145.636 471.337 145.398 469.243 145.893C467.15 146.389 465.29 147.588 463.977 149.29L468.157 155.576L462.445 152.24C462.002 153.66 461.908 155.165 462.169 156.63Z" fill="#B0CADF"/>
<path d="M462.555 155.388C462.928 157.504 464.017 159.429 465.642 160.838C467.266 162.248 469.326 163.056 471.476 163.129C473.626 163.201 475.736 162.533 477.452 161.235C479.167 159.938 480.384 158.092 480.898 156.005C481.412 153.918 481.192 151.718 480.275 149.774C479.359 147.829 477.8 146.259 475.862 145.327C473.923 144.394 471.723 144.155 469.629 144.651C467.536 145.146 465.677 146.346 464.363 148.048L468.544 154.333L462.832 150.997C462.389 152.418 462.294 153.923 462.555 155.388V155.388Z" stroke="#3F3D56" stroke-miterlimit="10"/>
<path d="M4.86869 142.258C5.76601 142.584 6.72683 142.697 7.67542 142.589C8.62401 142.48 9.53445 142.154 10.335 141.634C11.1355 141.114 11.8042 140.416 12.2884 139.594C12.7726 138.772 13.0591 137.849 13.1252 136.897C13.1913 135.946 13.0354 134.992 12.6695 134.111C12.3037 133.23 11.738 132.446 11.0171 131.821C10.2962 131.196 9.43973 130.746 8.51523 130.508C7.59074 130.27 6.62347 130.249 5.68968 130.448L5.84399 133.617L4.34273 130.901C2.86933 131.593 1.73107 132.84 1.17808 134.37C0.981692 134.905 0.862302 135.466 0.823473 136.035C0.728712 137.371 1.07235 138.701 1.80231 139.824C2.53228 140.947 3.60878 141.801 4.86869 142.258Z" fill="#57B894"/>
<path d="M12.2963 179.02C11.7664 176.324 14.0628 173.935 16.331 172.381C18.5993 170.828 21.2497 169.302 22.0236 166.666C23.1359 162.877 19.8227 159.408 17.244 156.416C15.3308 154.195 13.6879 151.756 12.3495 149.15C11.7676 148.126 11.3713 147.007 11.1788 145.846C10.9754 144.167 11.5156 142.496 12.0597 140.894C13.8724 135.558 15.8104 130.266 17.8739 125.02" stroke="#3F3D56" stroke-miterlimit="10"/>
<path d="M5.12205 141.442C6.01937 141.768 6.98019 141.881 7.92878 141.772C8.87737 141.664 9.7878 141.337 10.5883 140.817C11.3888 140.298 12.0575 139.599 12.5418 138.777C13.026 137.955 13.3124 137.032 13.3786 136.081C13.4447 135.129 13.2887 134.176 12.9229 133.295C12.557 132.414 11.9914 131.63 11.2705 131.004C10.5495 130.379 9.69309 129.93 8.76859 129.691C7.8441 129.453 6.87683 129.433 5.94304 129.631L6.09735 132.801L4.59609 130.085C3.12269 130.776 1.98443 132.024 1.43144 133.553C1.23505 134.089 1.11566 134.65 1.07683 135.219C0.982065 136.554 1.3257 137.884 2.05567 139.007C2.78563 140.13 3.86213 140.985 5.12205 141.442Z" fill="#B0CADF" stroke="#3F3D56" stroke-miterlimit="10"/>
<path d="M11.5433 123.924C11.8954 122.953 12.4864 122.087 13.2619 121.404C14.0373 120.722 14.9723 120.245 15.9805 120.019L16.4881 123.032L17.4292 119.867C18.7358 119.887 20.0025 120.32 21.0463 121.105C22.0902 121.891 22.8571 122.987 23.2365 124.236C23.6159 125.485 23.588 126.823 23.157 128.055C22.7259 129.287 21.914 130.351 20.8384 131.092C19.7628 131.833 18.4792 132.214 17.1728 132.179C15.8665 132.144 14.6051 131.695 13.5708 130.898C12.5364 130.1 11.7826 128.995 11.4181 127.741C11.0537 126.487 11.0975 125.151 11.5433 123.924Z" fill="#57B894"/>
<path d="M11.8811 122.834C12.2333 121.863 12.8243 120.997 13.5998 120.314C14.3752 119.632 15.3102 119.155 16.3184 118.929L16.826 121.942L17.7671 118.777C19.0737 118.797 20.3404 119.23 21.3842 120.016C22.428 120.801 23.195 121.897 23.5744 123.146C23.9538 124.396 23.9259 125.733 23.4949 126.965C23.0638 128.197 22.2519 129.261 21.1763 130.002C20.1007 130.743 18.817 131.124 17.5107 131.089C16.2044 131.054 14.943 130.605 13.9086 129.808C12.8743 129.01 12.1205 127.905 11.756 126.651C11.3916 125.398 11.4354 124.061 11.8811 122.834Z" fill="#B0CADF" stroke="#3F3D56" stroke-miterlimit="10"/>
<path d="M16.1619 156.475C17.585 156.991 19.1482 156.965 20.5537 156.404C21.9592 155.842 23.1086 154.783 23.7829 153.43C24.4571 152.076 24.6091 150.521 24.2099 149.063C23.8106 147.604 22.888 146.344 21.6179 145.521L20.8948 147.953L20.382 144.904C20.377 144.902 20.3717 144.9 20.3663 144.898C19.6052 144.622 18.7969 144.498 17.9877 144.533C17.1786 144.569 16.3844 144.764 15.6506 145.106C14.9168 145.448 14.2577 145.932 13.711 146.529C13.1643 147.126 12.7408 147.825 12.4646 148.585C12.1884 149.346 12.065 150.153 12.1013 150.961C12.1377 151.77 12.3331 152.563 12.6765 153.295C13.0198 154.028 13.5044 154.686 14.1024 155.232C14.7005 155.777 15.4003 156.2 16.1619 156.475Z" fill="#B0CADF"/>
<path d="M16.4554 155.372C17.8784 155.888 19.4416 155.862 20.8471 155.301C22.2526 154.739 23.402 153.68 24.0763 152.326C24.7506 150.973 24.9026 149.418 24.5033 147.96C24.104 146.501 23.1814 145.24 21.9113 144.418L21.1882 146.85L20.6754 143.801C20.6704 143.798 20.6651 143.796 20.6598 143.795C19.8987 143.519 19.0908 143.396 18.2821 143.432C17.4733 143.468 16.6797 143.663 15.9463 144.005C14.4653 144.697 13.3201 145.948 12.7625 147.484C12.205 149.019 12.2808 150.712 12.9734 152.192C13.6659 153.671 14.9184 154.815 16.4554 155.372V155.372Z" stroke="#3F3D56" stroke-miterlimit="10"/>
<path d="M9.74412 166.701C9.9888 168.091 10.7048 169.356 11.7719 170.282C12.8391 171.208 14.1926 171.739 15.6054 171.787C17.0182 171.834 18.4044 171.395 19.5315 170.543C20.6586 169.691 21.4581 168.477 21.7959 167.106C22.1337 165.735 21.9892 164.289 21.3867 163.012C20.7843 161.735 19.7604 160.703 18.4869 160.09C17.2133 159.478 15.7676 159.321 14.3921 159.646C13.0166 159.972 11.7949 160.76 10.9321 161.878L13.6788 166.008L9.92578 163.816C9.63479 164.749 9.57248 165.738 9.74412 166.701Z" fill="#57B894"/>
<path d="M9.99778 165.884C10.2425 167.275 10.9584 168.539 12.0256 169.465C13.0928 170.391 14.4462 170.923 15.859 170.97C17.2718 171.018 18.658 170.579 19.7852 169.726C20.9123 168.874 21.7118 167.661 22.0496 166.29C22.3873 164.918 22.2429 163.473 21.6404 162.196C21.0379 160.918 20.0141 159.887 18.7405 159.274C17.467 158.661 16.0212 158.504 14.6457 158.83C13.2702 159.155 12.0486 159.944 11.1858 161.062L13.9325 165.192L10.1794 163C9.88844 163.933 9.82615 164.922 9.99778 165.884Z" fill="#B0CADF" stroke="#3F3D56" stroke-miterlimit="10"/>
<path d="M221.641 84.1042C225.874 84.1042 229.305 79.6684 229.305 74.1966C229.305 68.7248 225.874 64.2891 221.641 64.2891C217.408 64.2891 213.977 68.7248 213.977 74.1966C213.977 79.6684 217.408 84.1042 221.641 84.1042Z" fill="#2F2E41"/>
<path d="M263.344 84.3268C267.577 84.3268 271.008 79.891 271.008 74.4193C271.008 68.9475 267.577 64.5117 263.344 64.5117C259.111 64.5117 255.68 68.9475 255.68 74.4193C255.68 79.891 259.111 84.3268 263.344 84.3268Z" fill="#2F2E41"/>
<path d="M257.482 103.692C257.482 108.169 251.224 111.798 243.506 111.798C235.787 111.798 229.529 108.169 229.529 103.692C229.529 99.8148 234.223 96.5723 240.494 95.7797C241.492 95.6482 242.498 95.5835 243.506 95.5861C245.193 95.5806 246.876 95.7619 248.523 96.1265C253.762 97.2929 257.482 100.243 257.482 103.692Z" fill="#2F2E41"/>
<path d="M223.444 81.8503C227.677 81.8503 231.108 77.4145 231.108 71.9427C231.108 66.4709 227.677 62.0352 223.444 62.0352C219.211 62.0352 215.779 66.4709 215.779 71.9427C215.779 77.4145 219.211 81.8503 223.444 81.8503Z" stroke="#3F3D56" stroke-miterlimit="10"/>
<path d="M265.147 82.0768C269.38 82.0768 272.811 77.6411 272.811 72.1693C272.811 66.6975 269.38 62.2617 265.147 62.2617C260.914 62.2617 257.482 66.6975 257.482 72.1693C257.482 77.6411 260.914 82.0768 265.147 82.0768Z" stroke="#3F3D56" stroke-miterlimit="10"/>
<path d="M245.31 109.548C253.029 109.548 259.286 105.919 259.286 101.442C259.286 96.9652 253.029 93.3359 245.31 93.3359C237.591 93.3359 231.334 96.9652 231.334 101.442C231.334 105.919 237.591 109.548 245.31 109.548Z" stroke="#3F3D56" stroke-miterlimit="10"/>
<path d="M248.69 96.8006C248.694 97.3669 248.481 97.9133 248.095 98.3281C247.913 98.5269 247.691 98.6858 247.444 98.795C247.198 98.9041 246.931 98.961 246.661 98.9622H242.153C241.597 98.9429 241.072 98.7047 240.692 98.2996C240.312 97.8945 240.107 97.3556 240.124 96.8006C240.122 96.3615 240.25 95.9317 240.494 95.5661C241.491 95.4258 242.498 95.3568 243.505 95.3595C245.195 95.3539 246.879 95.5474 248.523 95.9359C248.635 96.2106 248.691 96.5043 248.69 96.8006Z" fill="white"/>
<path d="M223.444 71.4917C224.689 71.4917 225.698 70.4836 225.698 69.24C225.698 67.9964 224.689 66.9883 223.444 66.9883C222.199 66.9883 221.189 67.9964 221.189 69.24C221.189 70.4836 222.199 71.4917 223.444 71.4917Z" fill="white"/>
<path d="M265.371 71.4917C266.616 71.4917 267.626 70.4836 267.626 69.24C267.626 67.9964 266.616 66.9883 265.371 66.9883C264.126 66.9883 263.117 67.9964 263.117 69.24C263.117 70.4836 264.126 71.4917 265.371 71.4917Z" fill="white"/>
<path opacity="0.3" d="M267.625 92.6597C268.87 92.6597 269.88 91.6516 269.88 90.408C269.88 89.1644 268.87 88.1562 267.625 88.1562C266.38 88.1562 265.371 89.1644 265.371 90.408C265.371 91.6516 266.38 92.6597 267.625 92.6597Z" fill="#015294"/>
<path opacity="0.3" d="M212.623 92.6597C213.868 92.6597 214.878 91.6516 214.878 90.408C214.878 89.1644 213.868 88.1562 212.623 88.1562C211.378 88.1562 210.369 89.1644 210.369 90.408C210.369 91.6516 211.378 92.6597 212.623 92.6597Z" fill="#015294"/>
</svg>
