<?xml version="1.0" standalone="no"?>
<!DOCTYPE svg PUBLIC "-//W3C//DTD SVG 1.1//EN" "http://www.w3.org/Graphics/SVG/1.1/DTD/svg11.dtd">
<svg xmlns="http://www.w3.org/2000/svg">
<metadata>Copyright (C) 2020 by original authors @ fontello.com</metadata>
<defs>
<font id="etvas-icons" horiz-adv-x="1000" >
<font-face font-family="etvas-icons" font-weight="400" font-stretch="normal" units-per-em="1000" ascent="850" descent="-150" />
<missing-glyph horiz-adv-x="1000" />
<glyph glyph-name="360" unicode="&#xe800;" d="M958 350c0 253-205 458-458 458-253 0-458-205-458-458 0-253 205-458 458-458 253 0 458 205 458 458z m-806 139c38 95 114 171 209 209-23-43-40-96-52-157-61-12-114-29-157-52z m487 209c23-43 40-96 52-157 61-12 114-29 157-52-38 95-114 171-209 209z m-514-348c0 38 68 78 171 103-3-33-4-68-4-103 0-35 1-69 4-103-103 25-171 66-171 103z m583 0c0-35-1-69-4-103 103 25 171 66 171 103 0 38-68 78-171 103 3-33 4-68 4-103z m-556-139c43-23 96-40 157-52 12-61 29-114 52-157-95 38-171 114-209 209z m539-52c-12-61-29-114-52-157 95 38 171 114 209 209-43-23-96-40-157-52z m-316 191c0 41 3 81 7 118 37 4 77 7 118 7 41 0 81-3 118-7 4-37 7-77 7-118 0-41-3-81-7-118-37-4-77-7-118-7-41 0-81 3-118 7-4 37-7 77-7 118z m22-204c25-103 66-171 103-171 38 0 78 68 103 171-33-3-68-4-103-4-35 0-70 1-103 4z m103 579c-37 0-78-68-103-171 33 3 68 4 103 4 35 0 70-1 103-4-25 103-65 171-103 171z" horiz-adv-x="1000" />

<glyph glyph-name="active" unicode="&#xe801;" d="" horiz-adv-x="1000" />

<glyph glyph-name="add-to-library" unicode="&#xe802;" d="M625 17v-84h-458c-46 0-84 38-84 84v666c0 46 38 84 84 84h666c46 0 84-38 84-84v-416h-84v416h-666v-666h458z m-125 536v-209c-13 4-27 6-42 6-66 0-125-44-125-104 0-61 59-104 125-104 67 0 125 43 125 104v151l61-40 46 69-190 127z m208-578h84v-83h83v83h83v83h-83v84h-83v-84h-84v-83z m-208 271c0-9-16-21-42-21-25 0-41 12-41 21 0 8 16 21 41 21 26 0 42-13 42-21z" horiz-adv-x="1000" />

<glyph glyph-name="advertisement" unicode="&#xe803;" d="M250 17v83h83v-42c0-46 38-83 84-83h125c46 0 83 37 83 83v84h125v-42c0-46 37-83 83-83h84c46 0 83 37 83 83v583c0 46-37 84-83 84h-750-84c-46 0-83-38-83-84v-666c0-46 37-84 83-84h84c46 0 83 38 83 84z m-167 0v666h750 84v-583h-84v167h-83v-42h-125v42h-83v-209h-125v209h-84v-84h-83v84h-83v-250h-84z m709 583v-83h-584v83h584z m-125-250v83h-459v-83h459z" horiz-adv-x="1000" />

<glyph glyph-name="airplay" unicode="&#xe804;" d="M804 58l-60 84h131v500h-750v-500h131l-60-84h-71c-46 0-83 38-83 84v500c0 46 37 83 83 83h750c46 0 83-37 83-83v-500c0-46-37-84-83-84h-71z m-304 322l289-405h-578l289 405z m127-322h-254l127 179 127-179z" horiz-adv-x="1000" />

<glyph glyph-name="alarm-checked" unicode="&#xe805;" d="M200 796l59-59-146-146-59 59 146 146z m746-146l-146 146-59-59 146-146 59 59z m-446-717c-230 0-417 187-417 417 0 230 187 417 417 417 230 0 417-187 417-417 0-230-187-417-417-417z m0 84c184 0 333 149 333 333 0 184-149 333-333 333-184 0-333-149-333-333 0-184 149-333 333-333z m137 488l-179-179-95 95-59-59 154-154 238 238-59 59z" horiz-adv-x="1000" />

<glyph glyph-name="alarm-minus" unicode="&#xe806;" d="M200 796l59-59-146-146-59 59 146 146z m746-146l-146 146-59-59 146-146 59 59z m-446-717c-230 0-417 187-417 417 0 230 187 417 417 417 230 0 417-187 417-417 0-230-187-417-417-417z m0 84c184 0 333 149 333 333 0 184-149 333-333 333-184 0-333-149-333-333 0-184 149-333 333-333z m-167 375v-84h334v84h-334z" horiz-adv-x="1000" />

<glyph glyph-name="alarm-no" unicode="&#xe807;" d="M97 694l-43-44 59-59 43 44 21-21c-58-72-94-164-94-264 0-230 187-417 417-417 100 0 192 36 264 94l123-123 59 59-833 833-59-59 43-43z m607-607l-467 467c-44-56-70-127-70-204 0-184 149-333 333-333 77 0 148 26 204 70z m129 263c0-46-9-91-26-131l62-62c31 57 48 123 48 193 0 230-187 417-417 417-70 0-136-17-193-48l62-62c40 17 85 26 131 26 184 0 333-149 333-333z m-33 446l146-146-59-59-146 146 59 59z" horiz-adv-x="1000" />

<glyph glyph-name="alarm-plus" unicode="&#xe808;" d="M259 737l-59 59-146-146 59-59 146 146z m541 59l146-146-59-59-146 146 59 59z m-717-446c0-230 187-417 417-417 230 0 417 187 417 417 0 230-187 417-417 417-230 0-417-187-417-417z m750 0c0-184-149-333-333-333-184 0-333 149-333 333 0 184 149 333 333 333 184 0 333-149 333-333z m-375-42h-125v84h125v125h84v-125h125v-84h-125v-125h-84v125z" horiz-adv-x="1000" />

<glyph glyph-name="alarm-snooze" unicode="&#xe809;" d="M200 796l59-59-146-146-59 59 146 146z m746-146l-146 146-59-59 146-146 59 59z m-446-717c-230 0-417 187-417 417 0 230 187 417 417 417 230 0 417-187 417-417 0-230-187-417-417-417z m0 84c184 0 333 149 333 333 0 184-149 333-333 333-184 0-333-149-333-333 0-184 149-333 333-333z m-125 500v-84h131l-167-250h286v84h-130l166 250h-286z" horiz-adv-x="1000" />

<glyph glyph-name="alarm" unicode="&#xe80a;" d="M259 737l-59 59-146-146 59-59 146 146z m541 59l146-146-59-59-146 146 59 59z m-300-863c-230 0-417 187-417 417 0 230 187 417 417 417 230 0 417-187 417-417 0-230-187-417-417-417z m0 84c184 0 333 149 333 333 0 184-149 333-333 333-184 0-333-149-333-333 0-184 149-333 333-333z m208 375h-166v208h-84v-292h250v84z" horiz-adv-x="1000" />

<glyph glyph-name="alert-circle" unicode="&#xe80b;" d="M42 350c0-253 205-458 458-458 253 0 458 205 458 458 0 253-205 458-458 458-253 0-458-205-458-458z m833 0c0-207-168-375-375-375-207 0-375 168-375 375 0 207 168 375 375 375 207 0 375-168 375-375z m-375-250c23 0 42 19 42 42 0 23-19 41-42 41-23 0-42-18-42-41 0-23 19-42 42-42z m42 500h-83v-333h83v333z" horiz-adv-x="1000" />

<glyph glyph-name="alert-octagon" unicode="&#xe80c;" d="M958 160v380l-268 268h-380l-268-268v-380l268-268h380l268 268z m-613 565h310l220-220v-310l-220-220h-310l-220 220v310l220 220z m155-625c23 0 42 19 42 42 0 23-19 41-42 41-23 0-42-18-42-41 0-23 19-42 42-42z m42 500h-83v-333h83v333z" horiz-adv-x="1000" />

<glyph glyph-name="alert-triangle" unicode="&#xe80d;" d="M935 185l-292 499c-29 51-84 83-143 83-59 0-113-32-143-83l-292-499c-30-51-31-115-2-167 30-52 85-84 144-85l585 0c61 1 115 33 145 85 29 52 28 116-2 167z m-798-42l292 499c15 26 42 41 71 41 29 0 57-15 71-41l292-499c16-26 16-58 1-84-14-26-42-42-72-42l-584 0c-30 0-57 16-72 42-15 26-15 58 1 84z m363-43c23 0 42 19 42 42 0 23-19 41-42 41-23 0-42-18-42-41 0-23 19-42 42-42z m42 417h-84v-292h84v292z" horiz-adv-x="1000" />

<glyph glyph-name="app-notification" unicode="&#xe80e;" d="M750 392c-115 0-208 93-208 208 0 115 93 208 208 208 115 0 208-93 208-208 0-115-93-208-208-208z m42-42h83v-292c0-46-37-83-83-83h-584c-46 0-83 37-83 83v584c0 46 37 83 83 83h292v-83h-292v-584h584v292z m83 250c0-69-56-125-125-125-69 0-125 56-125 125 0 69 56 125 125 125 69 0 125-56 125-125z" horiz-adv-x="1000" />

<glyph glyph-name="apps" unicode="&#xe80f;" d="M167 767h208c46 0 83-38 83-84v-208c0-46-37-83-83-83h-208c-46 0-84 37-84 83v208c0 46 38 84 84 84z m0-459h208c46 0 83-37 83-83v-208c0-46-37-84-83-84h-208c-46 0-84 38-84 84v208c0 46 38 83 84 83z m583 0h-83v-125h-125v-83h125v-125h83v125h125v83h-125v125z m-583-291v208h208v-208h-208z m0 458v208h208v-208h-208z m458 292h208c46 0 84-38 84-84v-208c0-46-38-83-84-83h-208c-46 0-83 37-83 83v208c0 46 37 84 83 84z m0-292v208h208v-208h-208z" horiz-adv-x="1000" />

<glyph glyph-name="arrow-bold-bottom" unicode="&#xe810;" d="M884 350h-225l-83 417h-152l-83-417h-224l383-438 384 438z m-184-83l-200-229-200 229h109l84 416h15l83-416h109z" horiz-adv-x="1000" />

<glyph glyph-name="arrow-bold-forvard-all" unicode="&#xe811;" d="M417 701l350-351-350-351v191c-85 10-172-29-262-119l-72-72v101c0 256 115 400 334 415v186z m83-202v-66h-42c-167 0-260-75-285-236 97 70 196 93 295 68l32-7v-57l149 149-149 149z m83 202v-125l226-226-226-226v-125l351 351-351 351z" horiz-adv-x="1000" />

<glyph glyph-name="arrow-bold-forvard" unicode="&#xe812;" d="M500 734v-218c-273-13-417-155-417-416v-101l72 72c93 93 207 132 345 118v-223l438 384-438 384z m83-301v117l229-200-229-200v110l-34 6c-143 24-268 0-374-71 31 161 150 238 367 238h41z" horiz-adv-x="1000" />

<glyph glyph-name="arrow-bold-left" unicode="&#xe813;" d="M500-34v225l417 83v152l-417 83v225l-438-384 438-384z m-83 184l-229 200 229 200v-109l416-83v-15l-416-84v-109z" horiz-adv-x="1000" />

<glyph glyph-name="arrow-bold-redo" unicode="&#xe814;" d="M875 58v559l-167-166c-20 20-33 31-48 43-57 45-114 64-202 64-162 0-333-132-333-291v-101l71 71c2 2 6 6 12 11 10 8 22 17 35 25 37 22 74 35 111 35 65 0 98-18 135-77l-173-173h559z m-196 304l29-29 84 83v-274h-275l77 76-16 28c-59 103-115 146-224 146-37 0-73-9-108-24 48 62 132 107 212 107 70 0 108-13 150-46 18-15 33-29 71-67z" horiz-adv-x="1000" />

<glyph glyph-name="arrow-bold-reply-all" unicode="&#xe815;" d="M191 350l226 226v125l-351-351 351-351v125l-226 226z m392-160v-191l-350 351 350 351v-186c220-15 334-159 334-415v-101l-71 72c-91 90-177 129-263 119z m-83 309l-149-149 149-149v57l32 7c99 25 198 2 295-68-25 161-118 236-285 236h-42v66z" horiz-adv-x="1000" />

<glyph glyph-name="arrow-bold-reply" unicode="&#xe816;" d="M62 350l438-384v223c138 14 252-25 346-118l71-72v101c0 261-144 403-417 416v218l-438-384z m126 0l229 200v-117h41c217 0 336-77 367-238-106 71-231 95-373 71l-35-6v-110l-229 200z" horiz-adv-x="1000" />

<glyph glyph-name="arrow-bold-right" unicode="&#xe817;" d="M83 274l417-83v-225l438 384-438 384v-225l-417-83v-152z m500 276l229-200-229-200v109l-416 84v15l416 83v109z" horiz-adv-x="1000" />

<glyph glyph-name="arrow-bold-top" unicode="&#xe818;" d="M117 350h224l83-417h152l83 417h225l-384 438-383-438z m383 312l200-229h-109l-83-416h-15l-84 416h-109l200 229z" horiz-adv-x="1000" />

<glyph glyph-name="arrow-bold-undo" unicode="&#xe819;" d="M125 58h559l-173 173c38 59 70 77 135 77 37 0 75-13 111-35 13-8 25-17 35-25 6-5 10-9 12-11l71-71v101c0 159-171 291-333 291-88 0-145-19-202-64-15-12-28-23-48-43l-167 166v-559z m83 84v274l84-83 29 29c38 38 53 52 71 67 42 33 80 46 150 46 80 0 164-45 212-107-35 15-71 24-108 24-109 0-165-43-224-146l-16-28 77-76h-275z" horiz-adv-x="1000" />

<glyph glyph-name="arrow-bottom-left" unicode="&#xe81a;" d="M583 58v-83h-458v458h83v-316l554 554 59-59-554-554h316z" horiz-adv-x="1000" />

<glyph glyph-name="arrow-bottom-right" unicode="&#xe81b;" d="M792 117v316h83v-458h-458v83h316l-554 554 59 59 554-554z" horiz-adv-x="1000" />

<glyph glyph-name="arrow-bottom" unicode="&#xe81c;" d="M458 76v649h84v-649l262 262 59-59-363-363-363 363 59 59 262-262z" horiz-adv-x="1000" />

<glyph glyph-name="arrow-forward-all" unicode="&#xe81d;" d="M387 612l179-179h-24c-328 0-459-135-459-458h84c0 277 94 375 375 375h24l-179-179 59-59 280 280-280 279-59-59z m209 0l220-220-220-221 59-59 279 280-279 279-59-59z" horiz-adv-x="1000" />

<glyph glyph-name="arrow-forward" unicode="&#xe81e;" d="M774 433l-178 179 59 59 279-279-279-280-59 59 178 179h-232c-281 0-375-98-375-375h-84c0 323 131 458 459 458h232z" horiz-adv-x="1000" />

<glyph glyph-name="arrow-left-curved" unicode="&#xe81f;" d="M226 433h441c138 0 250-112 250-250 0-138-112-250-250-250h-104v84h104c92 0 166 74 166 166 0 92-74 167-166 167h-441l179-179-59-59-280 280 280 279 59-59-179-179z" horiz-adv-x="1000" />

<glyph glyph-name="arrow-left" unicode="&#xe820;" d="M267 308l263-262-59-59-363 363 363 363 59-59-263-262h608v-84h-608z" horiz-adv-x="1000" />

<glyph glyph-name="arrow-redo" unicode="&#xe821;" d="M833 376v224h84v-375h-375v83h239c-23 30-57 74-75 94-67 74-140 115-227 115-212 0-312-142-312-334h-84c0 233 130 417 396 417 114 0 207-52 289-142 17-19 45-54 65-82z" horiz-adv-x="1000" />

<glyph glyph-name="arrow-reply-all" unicode="&#xe822;" d="M346 112l59 59-221 221 221 220-59 59-280-279 280-280z m267 59l-179 179h24c281 0 375-98 375-375h84c0 323-131 458-459 458h-24l179 179-59 59-280-279 280-280 59 59z" horiz-adv-x="1000" />

<glyph glyph-name="arrow-reply" unicode="&#xe823;" d="M226 433h232c328 0 459-135 459-458h-84c0 277-94 375-375 375h-232l179-179-59-59-280 280 280 279 59-59-179-179z" horiz-adv-x="1000" />

<glyph glyph-name="arrow-right-curved" unicode="&#xe824;" d="M774 433l-178 179 59 59 279-279-279-280-59 59 178 179h-441c-92 0-166-75-166-167 0-92 74-166 166-166h105v-84h-105c-138 0-250 112-250 250 0 138 112 250 250 250h441z" horiz-adv-x="1000" />

<glyph glyph-name="arrow-right" unicode="&#xe825;" d="M733 308h-608v84h608l-262 262 59 59 362-363-362-363-59 59 262 262z" horiz-adv-x="1000" />

<glyph glyph-name="arrow-top-left" unicode="&#xe826;" d="M267 642l554-554-59-59-554 554v-316h-83v458h458v-83h-316z" horiz-adv-x="1000" />

<glyph glyph-name="arrow-top-right" unicode="&#xe827;" d="M792 583l-554-554-59 59 554 554h-316v83h458v-458h-83v316z" horiz-adv-x="1000" />

<glyph glyph-name="arrow-top" unicode="&#xe828;" d="M542 624v-691h-84v691l-262-262-59 59 363 363 363-363-59-59-262 262z" horiz-adv-x="1000" />

<glyph glyph-name="arrow-undo" unicode="&#xe829;" d="M167 376c21 28 48 63 65 82 82 90 175 142 289 142 266 0 396-184 396-417h-84c0 192-99 334-312 334-87 0-160-41-227-115-18-20-51-64-74-94h238v-83h-375v375h84v-224z" horiz-adv-x="1000" />

<glyph glyph-name="arrows-diagonals-bltr" unicode="&#xe82a;" d="M583 642v83h292v-292h-83v150l-525-525h150v-83h-292v292h83v-150l525 525h-150z" horiz-adv-x="1000" />

<glyph glyph-name="arrows-diagonals-tlbr" unicode="&#xe82b;" d="M267 642l525-525v150h83v-292h-292v83h150l-525 525v-150h-83v292h292v-83h-150z" horiz-adv-x="1000" />

<glyph glyph-name="arrows-diagonals" unicode="&#xe82c;" d="M559 350l233-233v150h83v-292h-292v83h150l-233 233-233-233h150v-83h-292v292h83v-150l233 233-233 233v-150h-83v292h292v-83h-150l233-233 233 233h-150v83h292v-292h-83v150l-233-233z" horiz-adv-x="1000" />

<glyph glyph-name="arrows-hv" unicode="&#xe82d;" d="M816 308h-274v-274l95 96 59-59-196-197-196 197 59 59 95-96v274h-274l96-95-59-59-197 196 197 196 59-59-96-95h274v274l-95-95-59 59 196 196 196-196-59-59-95 95v-274h274l-95 95 59 59 196-196-196-196-59 59 95 95z" horiz-adv-x="1000" />

<glyph glyph-name="artist" unicode="&#xe82e;" d="M578 283c-67 25-120 78-145 145l-254-365 34-34 365 254z m-158 272c18 120 122 212 247 212 138 0 250-112 250-250 0-125-92-229-212-247l-501-349-133 133 349 501z m393-117c13 23 20 50 20 79 0 92-74 166-166 166-29 0-56-7-80-20 13-39 56-105 88-138 32-32 97-74 138-87z m-62-65c-24-15-53-23-84-23-92 0-167 75-167 167 0 30 8 59 23 84 23-50 60-101 93-135 33-32 85-70 135-93z" horiz-adv-x="1000" />

<glyph glyph-name="at-sign" unicode="&#xe82f;" d="M625 558h83v-208c0-103 8-125 42-125 54 0 83 26 83 125 0 220-110 333-333 333-144 0-272-93-317-230-45-137 4-287 121-372 117-85 275-86 392-1l48-67c-146-106-343-106-489 0-146 106-207 294-151 466 56 172 216 288 396 288 269 0 417-151 417-417 0-148-69-208-167-208-56 0-88 18-106 58-37-36-88-58-144-58-115 0-208 93-208 208 0 115 93 208 208 208 47 0 90-15 125-41v41z m0-208c0-69-56-125-125-125-69 0-125 56-125 125 0 69 56 125 125 125 69 0 125-56 125-125z" horiz-adv-x="1000" />

<glyph glyph-name="atom" unicode="&#xe830;" d="M818 350c87-143 109-280 36-354-74-73-211-51-354 36-143-87-280-109-354-36-73 74-51 211 36 354-87 143-109 280-36 354 74 73 211 51 354-36 143 87 280 109 354 36 73-74 51-211-36-354z m-436 118c39 38 79 72 118 100 39-28 79-62 118-100 39-39 72-79 100-118-28-39-61-79-100-118-39-38-79-72-118-100-39 28-79 62-118 100-38 39-72 79-100 118 28 39 62 79 100 118z m-177 177c36 36 121 23 219-30-34-26-68-56-101-88-32-33-62-67-88-101-53 98-65 183-30 219z m472-118c32-33 62-67 88-101 53 98 66 183 30 219-36 36-121 23-219-30 34-26 68-56 101-88z m0-354c32 33 62 67 88 101 53-98 66-183 30-219-36-35-121-23-219 30 34 26 68 56 101 88z m-442 101c26-34 56-68 88-101 33-32 67-62 101-88-98-53-183-65-219-30-35 36-23 121 30 219z m307 76c0 23-19 42-42 42-23 0-42-19-42-42 0-23 19-42 42-42 23 0 42 19 42 42z" horiz-adv-x="1000" />

<glyph glyph-name="avocado" unicode="&#xe831;" d="M125 267c0-204 157-375 375-375 218 0 375 171 375 375 0 91-31 200-88 311-81 157-154 230-266 230h-42c-113 0-204-91-267-233-61-136-87-224-87-308z m667 0c0-160-121-292-292-292-171 0-292 132-292 292 0 69 24 148 80 274 51 115 119 184 191 184h42c71 0 124-54 192-186 51-99 79-195 79-272z m-292-157c-92 0-167 75-167 167 0 96 76 198 167 198 91 0 167-102 167-198 0-92-75-167-167-167z m83 167c0-46-37-83-83-83-46 0-83 37-83 83 0 54 45 115 83 115 39 0 83-61 83-115z" horiz-adv-x="1000" />

<glyph glyph-name="bag" unicode="&#xe832;" d="M873 767l41-746c3-46-32-85-78-88-2 0-2 0-3 0 0 0-1 0-2 0h-662c-46 0-83 38-83 84 0 2 0 2 0 4l41 746h746z m-667-84l-37-666h662l-37 666h-588z m169-83h-83v-104c0-100 97-188 208-188 112 0 208 88 208 188v104h-83v-104c0-52-58-104-125-104-67 0-125 52-125 104v104z" horiz-adv-x="1000" />

<glyph glyph-name="bar-chart" unicode="&#xe833;" d="M125 725h750c46 0 83-37 83-83v-584c0-46-37-83-83-83h-750c-46 0-83 37-83 83v584c0 46 37 83 83 83z m0-83v-584h750v584h-750z m167-500h83v250h-83v-250z m250 0h-84v416h84v-416z m83 0h83v291h-83v-291z" horiz-adv-x="1000" />

<glyph glyph-name="bascket" unicode="&#xe834;" d="M167 475h83c0-15 8-30 23-37 21-11 46-2 56 18l9 19h324l9-19c10-20 35-29 56-18 15 7 23 22 23 37h83v-83h-666v83z m546 83h120c46 0 84-37 84-83v-83c0-35-22-65-52-78 0-2 0-4 0-6 0-6-1-12-2-18l-65-291c-8-39-42-66-81-66h-434c-39 0-72 27-81 66l-65 291c-1 8-2 17-1 24-31 13-53 43-53 78v83c0 46 38 83 84 83h120l92 186c11 20 36 29 56 18 21-10 29-35 19-56l-74-148h240l-74 148c-10 21-2 46 19 56 20 11 45 2 56-18l92-186z m-494-250h562l-64-291h-434l-64 291z" horiz-adv-x="1000" />

<glyph glyph-name="battery-40" unicode="&#xe835;" d="M125 600h667c46 0 83-37 83-83v-42c46 0 83-37 83-83v-84c0-46-37-83-83-83v-42c0-46-37-83-83-83h-667c-46 0-83 37-83 83v334c0 46 37 83 83 83z m0-83v-334h667v334h-667z m45-45h83v-258h-83v258z m208 0h-83v-258h83v258z" horiz-adv-x="1000" />

<glyph glyph-name="battery-60" unicode="&#xe836;" d="M792 600h-667c-46 0-83-37-83-83v-334c0-46 37-83 83-83h667c46 0 83 37 83 83v42c46 0 83 37 83 83v84c0 46-37 83-83 83v42c0 46-37 83-83 83z m-667-417v334h667v-334h-667z m128 289h-83v-258h83v258z m42 0h83v-258h-83v258z m208 0h-83v-258h83v258z" horiz-adv-x="1000" />

<glyph glyph-name="battery-80" unicode="&#xe837;" d="M125 600h667c46 0 83-37 83-83v-42c46 0 83-37 83-83v-84c0-46-37-83-83-83v-42c0-46-37-83-83-83h-667c-46 0-83 37-83 83v334c0 46 37 83 83 83z m0-83v-334h667v334h-667z m45-45h83v-258h-83v258z m208 0h-83v-258h83v258z m42 0h83v-258h-83v258z m208 0h-83v-258h83v258z" horiz-adv-x="1000" />

<glyph glyph-name="battery-100" unicode="&#xe838;" d="M792 600h-667c-46 0-83-37-83-83v-334c0-46 37-83 83-83h667c46 0 83 37 83 83v42c46 0 83 37 83 83v84c0 46-37 83-83 83v42c0 46-37 83-83 83z m-667-417v334h667v-334h-667z m128 289h-83v-258h83v258z m42 0h83v-258h-83v258z m208 0h-83v-258h83v258z m42 0h83v-258h-83v258z m208 0h-83v-258h83v258z" horiz-adv-x="1000" />

<glyph glyph-name="battery-charching" unicode="&#xe839;" d="M333 100v83h-208v334h250v83h-250c-46 0-83-37-83-83v-334c0-46 37-83 83-83h208z m250 500v-83h209v-334h-250v-83h250c46 0 83 37 83 83v42c46 0 83 37 83 83v84c0 46-37 83-83 83v42c0 46-37 83-83 83h-209z m-125-208h167l-208-292 41 208h-166l208 292-42-208z" horiz-adv-x="1000" />

<glyph glyph-name="battery-no" unicode="&#xe83a;" d="M191 600l-137 137 59 59 833-833-59-59-196 196h-566c-46 0-83 37-83 83v334c0 46 37 83 83 83h66z m417-417l-334 334h-149v-334h483z m-183 417h367c46 0 83-37 83-83v-42c46 0 83-37 83-83v-84c0-46-37-83-83-83v-42c0-10-2-19-5-28l-78 79v283h-283l-84 83z" horiz-adv-x="1000" />

<glyph glyph-name="battery" unicode="&#xe83b;" d="M125 600h667c46 0 83-37 83-83v-42c46 0 83-37 83-83v-84c0-46-37-83-83-83v-42c0-46-37-83-83-83h-667c-46 0-83 37-83 83v334c0 46 37 83 83 83z m0-83v-334h667v334h-667z" horiz-adv-x="1000" />

<glyph glyph-name="behance" unicode="&#xe83c;" d="M83 642h209c92 0 166-75 166-167 0-41-14-78-39-107 49-29 81-82 81-143 0-92-75-167-167-167h-250v250 84 250z m84-500v166h125 41c46 0 84-37 84-83 0-46-38-83-84-83h-166z m708 458h-292v-83h292v83z m-140-458c43 0 70 9 84 22 8 7 11 15 11 19h83c0-67-61-125-178-125-116 0-193 76-193 209 0 123 66 208 187 208 122 0 188-85 188-208v-42h-288c11-57 48-83 106-83z m95 166c-11 55-44 84-101 84-57 0-90-29-100-84h201z m-663 84v166h125c46 0 83-37 83-83 0-46-37-83-83-83h-125z" horiz-adv-x="1000" />

<glyph glyph-name="bell-add" unicode="&#xe83d;" d="M578 755c120-35 214-152 214-321 0-110 22-171 63-216 7-8 26-25 38-37l0 0 0 0 0 0c6-5 10-9 12-10l12-13v-142h-256c-10-41-36-77-74-100-53-33-121-33-174 0-43 27-67 56-76 100h-254v142l12 13c2 1 6 5 12 11 13 11 31 28 38 36 41 44 63 106 63 216 0 169 94 286 214 321 5 12 12 22 21 31 32 30 82 30 114 0 9-9 16-20 21-31z m-154-739h148c-6-11-16-21-28-29-27-16-61-16-88 0-16 10-26 19-32 29z m409 107c-12 12-31 29-40 39-55 60-85 142-85 272 0 157-97 249-208 249-111 0-208-92-208-249 0-130-30-212-85-273-9-9-28-27-40-38v-23h666v23z m-375 394v-125h-125v-83h125v-125h84v125h125v83h-125v125h-84z" horiz-adv-x="1000" />

<glyph glyph-name="bell-alert" unicode="&#xe83e;" d="M792 433c0 170-94 287-214 322-5 11-12 22-21 31-32 30-82 30-114 0-9-9-16-20-21-31-120-35-214-152-214-322 0-109-22-171-63-215-7-8-25-25-38-37l0 0 0 0 0 0c-6-5-10-9-12-11l-12-12v-142h254c9-44 33-74 76-100 53-33 121-33 174 0 38 23 64 59 74 100h256v142l-12 12c-2 2-6 6-12 11-12 12-31 29-38 37-41 44-63 106-63 215z m-220-417h-148c6-11 16-19 32-29 27-17 61-17 88 0 12 7 22 17 28 29z m221 145c9-9 28-27 40-38v-24h-666v24c12 11 31 29 40 38 55 61 85 142 85 272 0 158 97 250 208 250 111 0 208-93 208-250 0-129 30-211 85-272z m-293 22c23 0 42 19 42 42 0 23-19 42-42 42-23 0-42-19-42-42 0-23 19-42 42-42z m42 375h-83v-250h83v250z" horiz-adv-x="1000" />

<glyph glyph-name="bell-checked" unicode="&#xe83f;" d="M673 578c-38 68-103 105-173 105-111 0-208-92-208-249 0-130-30-212-85-273-9-9-28-27-40-38v-23h666v23c-12 12-31 29-40 39-14 15-27 32-37 51l62 62c9-22 22-41 37-57 7-8 26-25 38-37l0 0c6-5 10-9 12-10l12-13v-142h-256c-10-41-36-77-74-100-53-33-121-33-174 0-43 27-67 56-76 100h-254v142l12 13c2 1 6 5 12 11 13 11 31 28 38 36 41 44 63 106 63 216 0 169 94 286 214 321 5 12 12 22 21 31 32 30 82 30 114 0 9-9 16-20 21-31 62-18 116-58 155-115l-60-62z m-249-562c6-10 16-19 32-29 27-16 61-16 88 0 12 8 22 18 28 29h-148z m380 530l-179-179-95 96-59-59 154-155 238 238-59 59z" horiz-adv-x="1000" />

<glyph glyph-name="bell-minus" unicode="&#xe840;" d="M578 755c120-35 214-152 214-321 0-110 22-171 63-216 7-8 26-25 38-37l0 0 0 0 0 0c6-5 10-9 12-10l12-13v-142h-256c-10-41-36-77-74-100-53-33-121-33-174 0-43 27-67 56-76 100h-254v142l12 13c2 1 6 5 12 11 13 11 31 28 38 36 41 44 63 106 63 216 0 169 94 286 214 321 5 12 12 22 21 31 32 30 82 30 114 0 9-9 16-20 21-31z m-154-739h148c-6-11-16-21-28-29-27-16-61-16-88 0-16 10-26 19-32 29z m409 107c-12 12-31 29-40 39-55 60-85 142-85 272 0 157-97 249-208 249-111 0-208-92-208-249 0-130-30-212-85-273-9-9-28-27-40-38v-23h666v23z m-166 186v83h-334v-83h334z" horiz-adv-x="1000" />

<glyph glyph-name="bell-no" unicode="&#xe841;" d="M792 234v200c0 169-94 286-214 321-5 11-12 22-21 31-32 30-82 30-114 0-9-9-16-19-21-31-36-10-69-28-99-52l59-60c34 26 75 40 118 40 111 0 208-92 208-249 0-50 5-92 13-129l71-71z m-205-318c38 23 64 59 74 100h114l112-112 59 59-833 833-59-59 175-175c-13-38-21-81-21-128 0-110-22-172-63-216-7-8-25-25-38-36-6-6-10-10-12-11l-12-13v-142l254 0c9-44 33-73 76-100 53-33 121-33 174 0z m-290 578l394-394h-524v23c12 11 31 29 40 38 55 61 85 143 85 273 0 21 2 41 5 60z m127-478h148c-6-11-16-21-28-29-27-16-61-16-88 0-16 10-26 19-32 29z" horiz-adv-x="1000" />

<glyph glyph-name="bell" unicode="&#xe842;" d="M792 433c0 170-94 287-214 322-5 11-12 22-21 31-32 30-82 30-114 0-9-9-16-20-21-31-120-35-214-152-214-322 0-109-22-171-63-215-7-8-25-25-38-37l0 0 0 0 0 0c-6-5-10-9-12-11l-12-12v-142h254c9-44 33-74 76-100 53-33 121-33 174 0 38 23 64 59 74 100h256v142l-12 12c-2 2-6 6-12 11-12 12-31 29-38 37-41 44-63 106-63 215z m-220-417h-148c6-11 16-19 32-29 27-17 61-17 88 0 12 7 22 17 28 29z m221 145c9-9 28-27 40-38v-24h-666v24c12 11 31 29 40 38 55 61 85 142 85 272 0 158 97 250 208 250 111 0 208-93 208-250 0-129 30-211 85-272z" horiz-adv-x="1000" />

<glyph glyph-name="bitcoin" unicode="&#xe843;" d="M542 681c100-14 166-78 166-185 0-55-17-98-46-129 55-30 88-85 88-163 0-121-80-187-198-187h-10v-84h-84v84h-83v-84h-83v84h-84v83h84v500h-84v83h84v84h83v-84h83v84h84v-86z m-42-81h-125v-208h125c82 0 125 34 125 104 0 70-43 104-125 104z m-125-292v-208h177c75 0 115 33 115 104 0 71-40 104-115 104h-177z" horiz-adv-x="1000" />

<glyph glyph-name="block-align-bottom" unicode="&#xe844;" d="M589 58h-178c-45 0-78 39-78 84v541c0 45 33 84 78 84h178c45 0 78-39 78-84v-541c0-45-33-84-78-84z m-6 625h-166v-541h166v541z m-500-666v-84h834v84h-834z" horiz-adv-x="1000" />

<glyph glyph-name="battery-20" unicode="&#xe845;" d="M792 600h-667c-46 0-83-37-83-83v-334c0-46 37-83 83-83h667c46 0 83 37 83 83v42c46 0 83 37 83 83v84c0 46-37 83-83 83v42c0 46-37 83-83 83z m-667-417v334h667v-334h-667z m128 289h-83v-258h83v258z" horiz-adv-x="1000" />

<glyph glyph-name="block-align-horizontally" unicode="&#xe846;" d="M458 183h-291c-45 0-84 33-84 78v178c0 45 39 78 84 78h291v250h84v-250h291c45 0 84-33 84-78v-178c0-45-39-78-84-78h-291v-250h-84v250z m-291 250v-166h666v166h-666z" horiz-adv-x="1000" />

<glyph glyph-name="block-align-left" unicode="&#xe847;" d="M167 767h-84v-834h84v834z m750-328v-178c0-45-39-78-84-78h-541c-45 0-84 33-84 78v178c0 45 39 78 84 78h541c45 0 84-33 84-78z m-625-6v-166h541v166h-541z" horiz-adv-x="1000" />

<glyph glyph-name="block-align-right" unicode="&#xe848;" d="M917 767h-84v-834h84v834z m-125-328v-178c0-45-39-78-84-78h-541c-45 0-84 33-84 78v178c0 45 39 78 84 78h541c45 0 84-33 84-78z m-625-6v-166h541v166h-541z" horiz-adv-x="1000" />

<glyph glyph-name="block-align-top" unicode="&#xe849;" d="M83 767v-84h834v84h-834z m506-834h-178c-45 0-78 39-78 84v541c0 45 33 84 78 84h178c45 0 78-39 78-84v-541c0-45-33-84-78-84z m-6 84v541h-166v-541h166z" horiz-adv-x="1000" />

<glyph glyph-name="block-align-vertically" unicode="&#xe84a;" d="M333 392v291c0 45 33 84 78 84h178c45 0 78-39 78-84v-291h250v-84h-250v-291c0-45-33-84-78-84h-178c-45 0-78 39-78 84v291h-250v84h250z m250 291h-166v-666h166v666z" horiz-adv-x="1000" />

<glyph glyph-name="block-distribute-vertically" unicode="&#xe84b;" d="M83 642v-84h834v84h-834z m750-381v178c0 45-38 78-83 78h-500c-45 0-83-33-83-78v-178c0-45 38-78 83-78h500c45 0 83 33 83 78z m-583 6v166h500v-166h-500z m-167-209v84h834v-84h-834z" horiz-adv-x="1000" />

<glyph glyph-name="bluetooth-no" unicode="&#xe84c;" d="M441 350l-387 387 59 59 833-833-59-59-220 220-209-208v333l-137-137-59 59 179 179z m101-233l66 66-66 66v-132z m-84 667v-217l84-83v99l66-66-50-50 59-59 109 109-268 267z" horiz-adv-x="1000" />

<glyph glyph-name="bone" unicode="&#xe84d;" d="M42 267c0-92 74-167 166-167 61 0 116 33 145 83h294c30-50 84-83 145-83 92 0 166 75 166 167 0 29-7 58-22 83 15 25 22 54 22 83 0 92-74 167-166 167-61 0-115-33-145-83h-294c-29 50-84 83-145 83-92 0-166-75-166-167 0-29 8-58 22-83-14-25-22-54-22-83z m255 0l-10-28c-12-33-43-56-79-56-46 0-83 38-83 84 0 21 8 40 21 55l25 28-25 28c-13 15-21 35-21 55 0 46 37 84 83 84 36 0 67-23 79-56l10-28h406l10 28c12 33 43 56 79 56 46 0 83-38 83-84 0-20-8-40-21-55l-25-28 25-28c13-15 21-34 21-55 0-46-37-84-83-84-36 0-67 23-79 56l-10 28h-406z" horiz-adv-x="1000" />

<glyph glyph-name="book" unicode="&#xe84e;" d="M875-67h-625c-69 0-125 56-125 125v584c0 69 56 125 125 125h625v-667c-23 0-42-19-42-42 0-23 19-41 42-41v-84z m-125 125c0 15 3 29 7 42h-507c-23 0-42-19-42-42 0-23 19-41 42-41h507c-4 13-7 27-7 41z m-500 625h542v-500h-542c-15 0-29-2-42-7v466c0 23 19 41 42 41z" horiz-adv-x="1000" />

<glyph glyph-name="bookmark" unicode="&#xe84f;" d="M208-92l292 145 292-145v775c0 46-38 84-84 84h-416c-46 0-84-38-84-84v-775z m292 239l-208-105v641h416v-641l-208 105z" horiz-adv-x="1000" />

<glyph glyph-name="bookmarks" unicode="&#xe850;" d="M417 808c-46 0-83-37-84-83h459v-621l83-43v663c0 46-37 84-83 84h-375z m0-755l-292-145v650c0 46 37 84 83 84h417c46 0 83-38 83-84v-650l-291 145z m-209-11l209 105 208-105v516h-417v-516z" horiz-adv-x="1000" />

<glyph glyph-name="box" unicode="&#xe851;" d="M833 58v417c46 0 84 37 84 83v84c0 46-38 83-84 83h-666c-46 0-84-37-84-83v-84c0-46 38-83 84-83v-417c0-46 37-83 83-83h500c46 0 83 37 83 83z m-583 0v417h500v-417h-500z m125 292v83h250v-83h-250z m-208 208v84h666v-84h-666z" horiz-adv-x="1000" />

<glyph glyph-name="brake-page" unicode="&#xe852;" d="M875 767v-209c0-46-37-83-83-83h-584c-46 0-83 37-83 83v209h83v-209h584v209h83z m0-625v-209h-83v209h-584v-209h-83v209c0 46 37 83 83 83h584c46 0 83-37 83-83z m-708 166v84h-84v-84h84z m125 84v-84h-84v84h84z m125-84v84h-84v-84h84z m125 84v-84h-84v84h84z m125-84v84h-84v-84h84z m125 84v-84h-84v84h84z m125-84v84h-84v-84h84z" horiz-adv-x="1000" />

<glyph glyph-name="bread" unicode="&#xe853;" d="M875 17v439c50 28 83 82 83 144 0 92-74 167-166 167h-584c-92 0-166-75-166-167 0-62 33-116 83-144v-439c0-46 37-84 83-84h584c46 0 83 38 83 84z m-83 0h-584v487l-41 24c-26 15-42 42-42 72 0 46 37 83 83 83h584c46 0 83-37 83-83 0-30-16-57-42-72l-41-24v-487z" horiz-adv-x="1000" />

<glyph glyph-name="brightness-high" unicode="&#xe854;" d="M542 639c-14 2-28 3-42 3-14 0-28-1-42-3v168c14 1 28 1 42 1 14 0 28 0 42-1v-168z m-250-289c0-115 93-208 208-208 115 0 208 93 208 208 0 115-93 208-208 208-115 0-208-93-208-208z m333 0c0-69-56-125-125-125-69 0-125 56-125 125 0 69 56 125 125 125 69 0 125-56 125-125z m-83-457v168c-14-2-28-3-42-3-14 0-28 1-42 3v-168c14-1 28-1 42-1 14 0 28 0 42 1z m247 499h168c1-14 1-28 1-42 0-14 0-28-1-42h-168c2 14 3 28 3 42 0 14-1 28-3 42z m-581-42c0 14 1 28 3 42h-167c-2-14-2-28-2-42 0-14 0-28 2-42h167c-2 14-3 28-3 42z m467 234l118 118c22-18 41-37 59-59l-118-118c-17 22-37 42-59 59z m-527 59l118-118c17 22 37 42 59 59l-118 118c-22-18-41-37-59-59z m586-468l118-118c-18-22-37-41-59-59l-118 118c22 17 42 37 59 59z m-527-177l118 118c-22 17-42 37-59 59l-118-118c18-22 37-41 59-59z" horiz-adv-x="1000" />

<glyph glyph-name="brightness-low" unicode="&#xe855;" d="M542 639c-14 2-28 3-42 3-14 0-28-1-42-3v84c14 1 28 2 42 2 14 0 28-1 42-2v-84z m-250-289c0-115 93-208 208-208 115 0 208 93 208 208 0 115-93 208-208 208-115 0-208-93-208-208z m333 0c0-69-56-125-125-125-69 0-125 56-125 125 0 69 56 125 125 125 69 0 125-56 125-125z m-83-373v84c-14-2-28-3-42-3-14 0-28 1-42 3v-84c14-1 28-2 42-2 14 0 28 1 42 2z m247 415h84c1-14 2-28 2-42 0-14-1-28-2-42h-84c2 14 3 28 3 42 0 14-1 28-3 42z m-581-42c0 14 1 28 3 42h-84c-1-14-2-28-2-42 0-14 1-28 2-42h84c-2 14-3 28-3 42z m467 234l59 59c22-17 42-37 59-59l-59-59c-17 22-37 42-59 59z m-468 0l59-59c17 22 37 42 59 59l-59 59c-22-17-42-37-59-59z m527-409l59-59c-17-22-37-42-59-59l-59 59c22 17 42 37 59 59z m-468-118l59 59c-22 17-42 37-59 59l-59-59c17-22 37-42 59-59z" horiz-adv-x="1000" />

<glyph glyph-name="bookmark-no" unicode="&#xe856;" d="M113 796l-59-59 154-154v-675l292 145 292-145v91l95-95 59 59-833 833z m595-713l-416 416v-457l208 105 208-105v41z m0 600v-366l84-83v449c0 46-38 84-84 84h-416c-10 0-19-2-28-5l78-79h366z" horiz-adv-x="1000" />

<glyph glyph-name="broadcasting" unicode="&#xe857;" d="M162 743l62-56c-62-67-99-156-99-254 0-97 37-186 99-253l-62-56c-75 81-120 190-120 309 0 120 45 229 120 310z m676 0c75-81 120-190 120-310 0-119-45-228-120-309l-62 56c62 67 99 156 99 253 0 98-37 187-99 254l62 56z m-475-810l28 84h218l28-84h88l-137 411c23 23 37 54 37 89 0 69-56 125-125 125-69 0-125-56-125-125 0-35 14-66 38-89l-137-411h87z m56 167l28 83h106l28-83h-162z m107 167l-14 42c-4 0-8-1-12-1-4 0-8 1-11 1l-14-42h51z m16 166c0-23-19-41-42-41-23 0-42 18-42 41 0 23 19 42 42 42 23 0 42-19 42-42z m250 0c0 76-29 146-77 197l-61-56c34-37 54-86 54-141 0-54-20-103-54-140l61-57c48 52 77 121 77 197z m-446 141l-61 56c-48-51-77-121-77-197 0-76 29-145 77-197l61 57c-34 37-54 86-54 140 0 55 20 104 54 141z" horiz-adv-x="1000" />

<glyph glyph-name="browser-no" unicode="&#xe858;" d="M500 208l-95-96-59 59 95 96-95 95 59 59 95-95 96 95 59-59-96-95 96-96-59-59-96 96z m375 267h-750v-417h750v417z m0 83v84h-750v-84h750z m-750-583c-46 0-83 37-83 83v584c0 46 37 83 83 83h750c46 0 83-37 83-83v-584c0-46-37-83-83-83h-750z" horiz-adv-x="1000" />

<glyph glyph-name="broadcast" unicode="&#xe859;" d="M184 682l61-57c-74-68-120-166-120-275 0-109 46-207 120-275l-61-57c-88 84-142 202-142 332 0 131 54 248 142 332z m191-332c0-69 56-125 125-125 69 0 125 56 125 125 0 69-56 125-125 125-69 0-125-56-125-125z m167 0c0-23-19-42-42-42-23 0-42 19-42 42 0 23 19 42 42 42 23 0 42-19 42-42z m-173 162l-62 57c-60-54-99-132-99-219 0-87 39-165 99-219l62 57c-47 38-77 97-77 162 0 65 30 124 77 162z m447 170c88-84 142-201 142-332 0-130-54-248-142-332l-61 57c74 68 120 166 120 275 0 109-46 207-120 275l61 57z m-24-332c0 87-38 165-99 219l-62-57c47-38 77-97 77-162 0-65-30-124-77-162l62-57c61 54 99 132 99 219z" horiz-adv-x="1000" />

<glyph glyph-name="browser" unicode="&#xe85a;" d="M875 475h-750v-417h750v417z m0 83v84h-750v-84h750z m-750-583c-46 0-83 37-83 83v584c0 46 37 83 83 83h750c46 0 83-37 83-83v-584c0-46-37-83-83-83h-750z" horiz-adv-x="1000" />

<glyph glyph-name="brush" unicode="&#xe85b;" d="M833 808v-333h0l0-42 0-41 0-83c1-64-35-84-133-113-58-18-75-27-75-33 0-32 3-54 9-79-1 5 6-23 8-30 2-13 4-25 4-37 0-70-65-125-146-125-81 0-146 55-146 125 0 12 2 24 4 37 2 7 9 35 8 30 6 25 9 47 9 79 0 6-17 15-74 33-99 29-134 49-134 112v84 83 333h666z m-294-416h211l0-84c0-6-17-15-74-33l0 0c-99-29-134-49-134-112 0-40 4-68 11-99 0 3 6-22 7-27 2-8 3-14 3-20 0-20-26-42-63-42-37 0-62 22-62 42 0 6 0 12 2 20 1 5 7 30 7 27 8 31 11 59 11 99 0 63-35 83-133 112-58 18-75 27-75 33v84h289z m-289 83v250h83v-167h84v167h83v-125h83v125h167v-250h-500z" horiz-adv-x="1000" />

<glyph glyph-name="calculator" unicode="&#xe85c;" d="M750 808h-500c-46 0-83-37-83-83v-750c0-46 37-83 83-83h500c46 0 83 37 83 83v750c0 46-37 83-83 83z m-500-250v167h500v-167h-500z m0-83v-500h500v500h-500z m167-417h-84v84h84v-84z m41 0h84v84h-84v-84z m209 0h-84v125 42 42h84v-42-42-125z m-334 125h84v84h-84v-84z m209 0h-84v84h84v-84z m-125 125h-84v84h84v-84z m41 0h84v84h-84v-84z m209 0h-84v84h84v-84z" horiz-adv-x="1000" />

<glyph glyph-name="calendar-create" unicode="&#xe85d;" d="M250 600h83v42h334v-42h83v42h83v-125h-666v125h83v-42z m-83-167v-416h416v-84h-416c-46 0-84 38-84 84v625c0 46 38 83 84 83h83v42h83v-42h334v42h83v-42h83c46 0 84-37 84-83v-375h-84v166h-666z m708-375v84h-83v-84h-84v-83h84v-83h83v83h83v83h-83z" horiz-adv-x="1000" />

<glyph glyph-name="calendar-dates" unicode="&#xe85e;" d="M333 600h-83v42h-83v-125h666v125h-83v-42h-83v42h-334v-42z m500-167h-666v-416h666v416z m-166 292h-334v42h-83v-42h-83c-46 0-84-37-84-83v-625c0-46 38-84 84-84h666c46 0 84 38 84 84v625c0 46-38 83-84 83h-83v42h-83v-42z m-375-458v83h83v-83h-83z m166 0h84v83h-84v-83z m167 0v83h83v-83h-83z m-333-84v-83h83v83h-83z m250-83h-84v83h84v-83z" horiz-adv-x="1000" />

<glyph glyph-name="calendar-delete" unicode="&#xe85f;" d="M333 600h-83v42h-83v-125h666v125h-83v-42h-83v42h-334v-42z m-166-583v416h666v-416h-666z m500 708h-334v42h-83v-42h-83c-46 0-84-37-84-83v-625c0-46 38-84 84-84h666c46 0 84 38 84 84v625c0 46-38 83-84 83h-83v42h-83v-42z m-71-345l-96-96-95 96-59-59 95-96-95-95 59-59 95 95 96-95 59 59-96 95 96 96-59 59z" horiz-adv-x="1000" />

<glyph glyph-name="block-distribute-horizontally" unicode="&#xe860;" d="M208 767h84v-834h-84v834z m203-750h178c45 0 78 38 78 83v500c0 45-33 83-78 83h-178c-45 0-78-38-78-83v-500c0-45 33-83 78-83z m6 583h166v-500h-166v500z m375 167h-84v-834h84v834z" horiz-adv-x="1000" />

<glyph glyph-name="bluetooth" unicode="&#xe861;" d="M262 529l59 59 137-137v333l268-267-167-167 167-167-268-267v333l-137-137-59 59 179 179-179 179z m280-412l66 66-66 66v-132z m66 400l-66-66v132l66-66z" horiz-adv-x="1000" />

<glyph glyph-name="bookmark-add" unicode="&#xe862;" d="M708 142v-100l-208 105-208-105v641h416v-41h84v41c0 46-38 84-84 84h-416c-46 0-84-38-84-84v-775l292 145 292-145v234h-84z m42 375v-84h-83v-83h83v-83h83v83h84v83h-84v84h-83z" horiz-adv-x="1000" />

<glyph glyph-name="calendar-checked" unicode="&#xe863;" d="M333 600h-83v42h-83v-125h666v125h-83v-42h-83v42h-334v-42z m-166-583v416h666v-416h-666z m500 708h-334v42h-83v-42h-83c-46 0-84-37-84-83v-625c0-46 38-84 84-84h666c46 0 84 38 84 84v625c0 46-38 83-84 83h-83v42h-83v-42z m-30-345l-179-179-95 95-59-59 154-154 238 238-59 59z" horiz-adv-x="1000" />

<glyph glyph-name="calendar-plus" unicode="&#xe864;" d="M250 600h83v42h334v-42h83v42h83v-125h-666v125h83v-42z m-83-167v-416h666v416h-666z m166 292h334v42h83v-42h83c46 0 84-37 84-83v-625c0-46-38-84-84-84h-666c-46 0-84 38-84 84v625c0 46 38 83 84 83h83v42h83v-42z m0-542v84h125v125h84v-125h125v-84h-125v-125h-84v125h-125z" horiz-adv-x="1000" />

<glyph glyph-name="calendar-minus" unicode="&#xe865;" d="M333 600h-83v42h-83v-125h666v125h-83v-42h-83v42h-334v-42z m-166-583v416h666v-416h-666z m500 708h-334v42h-83v-42h-83c-46 0-84-37-84-83v-625c0-46 38-84 84-84h666c46 0 84 38 84 84v625c0 46-38 83-84 83h-83v42h-83v-42z m-334-458v-84h334v84h-334z" horiz-adv-x="1000" />

<glyph glyph-name="calendar" unicode="&#xe866;" d="M250 600h83v42h334v-42h83v42h83v-125h-666v125h83v-42z m-83-167v-416h666v416h-666z m166 292h334v42h83v-42h83c46 0 84-37 84-83v-625c0-46-38-84-84-84h-666c-46 0-84 38-84 84v625c0 46 38 83 84 83h83v42h83v-42z" horiz-adv-x="1000" />

<glyph glyph-name="call-add" unicode="&#xe867;" d="M457 589c25-27 17-57-5-86-5-7-11-14-18-22-3-3-6-6-11-11l-32-32c-5-5 24-62 79-117 56-56 113-84 117-80l32 32c18 17 27 26 40 34 26 18 55 23 80 1 80-57 125-93 147-116 43-44 38-114 0-153-13-14-29-30-48-49-117-117-365-46-554 144-190 190-261 437-144 554 21 21 28 28 48 48 38 38 111 44 155 0 23-22 60-70 114-147z m221-375l-32-32c-54-54-147-8-234 80-88 88-135 180-80 235l32 31c5 6 7 8 10 11 4 4 7 7 9 11-48 67-81 109-99 127-9 9-30 7-37 0-20-20-27-26-48-48-75-75-18-275 144-436 161-161 361-219 436-143 19 18 35 34 47 46 9 9 10 28 0 39-16 17-57 48-127 99-5-4-11-10-21-20z m30 553v-125h-125v-84h125v-125h84v125h125v84h-125v125h-84z" horiz-adv-x="1000" />

<glyph glyph-name="call-calling" unicode="&#xe868;" d="M452 503c22 29 30 59 5 86-54 77-91 125-114 147-44 44-117 38-155 0-20-20-27-27-48-48-117-117-46-364 144-554 189-190 437-261 554-144 19 19 35 35 48 49 38 39 43 109 0 153-22 23-67 59-147 116-25 22-54 17-80-1-13-8-22-17-40-34l-32-32c-4-4-61 24-117 80-55 55-84 112-79 117l32 32c5 5 8 8 11 11 7 8 13 15 18 22z m194-321l32 32c10 10 16 16 21 20 70-51 111-82 127-99 10-11 9-30 0-39-12-12-28-28-47-46-75-76-275-18-436 143-162 161-219 361-144 436 21 22 28 28 48 48 7 7 28 9 37 0 18-18 51-60 99-127-2-4-5-7-9-11-3-3-5-5-10-11l-32-31c-55-55-8-147 80-235 87-88 180-134 234-80z m-77 582c180-22 323-165 345-345l-82-14c-16 145-132 261-277 277l14 82z m-27-165c110-10 197-97 207-207l-82-14c-4 75-64 135-139 139l14 82z" horiz-adv-x="1000" />

<glyph glyph-name="call-decline" unicode="&#xe869;" d="M500 350c39 0 75-5 101-13 11-4 20-8 24-12l0-37c0-11 0-16 0-23 3-48 15-80 58-82 84-13 140-20 171-20 61 0 104 54 104 104 0 5 0 10 0 20 0 11 0 15 0 21 0 8 0 15 0 22 0 154-209 270-458 270-249 0-458-116-458-271v-62c0-50 43-104 104-104 30 0 87 7 171 21 32 1 48 25 55 55 2 14 3 25 3 49v37c4 4 12 8 24 12 25 8 62 13 101 13z m-208-21v-41c0-11-1-19-1-24-73-12-122-18-145-18-10 0-21 13-21 21v62c0 96 166 188 375 188 209 0 375-92 375-188 0-7 0-13 0-21 0-5 0-10 0-20 0-11 0-15 0-21 0-7-11-21-21-21-23 0-72 6-145 18 0 1 0 3 0 5-1 5-1 9-1 19v41c0 74-92 104-208 104-116 0-208-30-208-104z" horiz-adv-x="1000" />

<glyph glyph-name="call-end" unicode="&#xe86a;" d="M601 462c-26 8-62 13-101 13-39 0-76-5-101-13-12-4-20-8-24-12v-37c0-24-1-35-3-49-7-30-23-54-55-55-84-14-141-21-171-21-61 0-104 54-104 104v62c0 155 209 271 458 271 249 0 458-116 458-270 0-7 0-14 0-22 0-6 0-10 0-21 0-10 0-15 0-20 0-50-43-104-104-104-31 0-87 7-171 20-43 2-55 34-58 82 0 7 0 12 0 23l0 37c-4 4-13 8-24 12z m-309-49v41c0 74 92 104 208 104 116 0 208-30 208-104v-41c0-10 0-14 1-19 0-2 0-4 0-5 73-12 122-18 145-18 10 0 21 14 21 21 0 6 0 10 0 21 0 10 0 15 0 20 0 8 0 14 0 21 0 96-166 188-375 188-209 0-375-92-375-188v-62c0-8 11-21 21-21 23 0 72 6 145 18 0 5 1 13 1 24z m166-63v-233l-95 96-59-59 196-196 196 196-59 59-95-96v233h-84z" horiz-adv-x="1000" />

<glyph glyph-name="call-forwarded" unicode="&#xe86b;" d="M457 589c25-27 17-57-5-86-5-7-11-14-18-22-3-3-6-6-11-11l-32-32c-5-5 24-62 79-117 56-56 113-84 117-80l32 32c18 17 27 26 40 34 26 18 55 23 80 1 80-57 125-93 147-116 43-44 38-114 0-153-13-14-29-30-48-49-117-117-365-46-554 144-190 190-261 437-144 554 21 21 28 28 48 48 38 38 111 44 155 0 23-22 60-70 114-147z m221-375l-32-32c-54-54-147-8-234 80-88 88-135 180-80 235l32 31c5 6 7 8 10 11 4 4 7 7 9 11-48 67-81 109-99 127-9 9-30 7-37 0-20-20-27-26-48-48-75-75-18-275 144-436 161-161 361-219 436-143 19 18 35 34 47 46 9 9 10 28 0 39-16 17-57 48-127 99-5-4-11-10-21-20z m-136 344h191l-54-53 59-59 154 154-154 155-59-59 54-54h-191v-84z" horiz-adv-x="1000" />

<glyph glyph-name="call-hash" unicode="&#xe86c;" d="M452 503c22 29 30 59 5 86-54 77-91 125-114 147-44 44-117 38-155 0-20-20-27-27-48-48-117-117-46-364 144-554 189-190 437-261 554-144 19 19 35 35 48 49 38 39 43 109 0 153-22 23-67 59-147 116-25 22-54 17-80-1-13-8-22-17-40-34l-32-32c-4-4-61 24-117 80-55 55-84 112-79 117l32 32c5 5 8 8 11 11 7 8 13 15 18 22z m194-321l32 32c10 10 16 16 21 20 70-51 111-82 127-99 10-11 9-30 0-39-12-12-28-28-47-46-75-76-275-18-436 143-162 161-219 361-144 436 21 22 28 28 48 48 7 7 28 9 37 0 18-18 51-60 99-127-2-4-5-7-9-11-3-3-5-5-10-11l-32-31c-55-55-8-147 80-235 87-88 180-134 234-80z m104 168l8 83h-83l-8-83h-84l9 83h-92l8 84h92l8 83h-66l8 83h67l8 84h83l-8-84h83l9 84h83l-8-84h91l-8-83h-92l-8-83h67l-9-84h-66l-9-83h-83z m25 250h-83l-9-83h84l8 83z" horiz-adv-x="1000" />

<glyph glyph-name="call-hold" unicode="&#xe86d;" d="M452 503c22 29 30 59 5 86-54 77-91 125-114 147-44 44-117 38-155 0-20-20-27-27-48-48-117-117-46-364 144-554 189-190 437-261 554-144 19 19 35 35 48 49 38 39 43 109 0 153-22 23-67 59-147 116-25 22-54 17-80-1-13-8-22-17-40-34l-32-32c-4-4-61 24-117 80-55 55-84 112-79 117l32 32c5 5 8 8 11 11 7 8 13 15 18 22z m194-321l32 32c10 10 16 16 21 20 70-51 111-82 127-99 10-11 9-30 0-39-12-12-28-28-47-46-75-76-275-18-436 143-162 161-219 361-144 436 21 22 28 28 48 48 7 7 28 9 37 0 18-18 51-60 99-127-2-4-5-7-9-11-3-3-5-5-10-11l-32-31c-55-55-8-147 80-235 87-88 180-134 234-80z m-21 585h83v-334h-83v334z m250 0h-83v-334h83v334z" horiz-adv-x="1000" />

<glyph glyph-name="call-incoming" unicode="&#xe86e;" d="M457 589c25-27 17-57-5-86-5-7-11-14-18-22-3-3-6-6-11-11l-32-32c-5-5 24-62 79-117 56-56 113-84 117-80l32 32c18 17 27 26 40 34 26 18 55 23 80 1 80-57 125-93 147-116 43-44 38-114 0-153-13-14-29-30-48-49-117-117-365-46-554 144-190 190-261 437-144 554 21 21 28 28 48 48 38 38 111 44 155 0 23-22 60-70 114-147z m221-375l-32-32c-54-54-147-8-234 80-88 88-135 180-80 235l32 31c5 6 7 8 10 11 4 4 7 7 9 11-48 67-81 109-99 127-9 9-30 7-37 0-20-20-27-26-48-48-75-75-18-275 144-436 161-161 361-219 436-143 19 18 35 34 47 46 9 9 10 28 0 39-16 17-57 48-127 99-5-4-11-10-21-20z m155 178v83h-149l221 221-59 59-221-221v149h-83v-291h291z" horiz-adv-x="1000" />

<glyph glyph-name="call-missed" unicode="&#xe86f;" d="M292 517v107l208-208 280 280-59 59-221-221-149 149h107v84h-250v-250h84z m309-389c-26 9-62 14-101 14-39 0-76-5-101-14-12-4-20-8-24-11v-38c0-23-1-35-3-49-7-30-23-53-55-55-84-14-141-21-171-21-61 0-104 55-104 104v63c0 155 209 271 458 271 249 0 458-116 458-270 0-7 0-14 0-22 0-6 0-11 0-21 0-10 0-15 0-21 0-49-43-104-104-104-31 0-87 7-171 21-43 2-55 34-58 82 0 6 0 12 0 22l0 38c-4 3-13 7-24 11z m-309-49v42c0 73 92 104 208 104 116 0 208-31 208-104v-42c0-9 0-13 1-18 0-2 0-4 0-6 73-11 122-17 145-17 10 0 21 13 21 20 0 6 0 11 0 22 0 10 0 14 0 20 0 7 0 14 0 21 0 96-166 187-375 187-209 0-375-91-375-187v-63c0-7 11-20 21-20 23 0 72 6 145 17 0 6 1 13 1 24z" horiz-adv-x="1000" />

<glyph glyph-name="call-muted" unicode="&#xe870;" d="M457 589c25-27 17-57-5-86-5-7-11-14-18-22-3-3-6-6-11-11l-32-32c-5-5 24-62 79-117 56-56 113-84 117-80l32 32c18 17 27 26 40 34 26 18 55 23 80 1 80-57 125-93 147-116 43-44 38-114 0-153-13-14-29-30-48-49-117-117-365-46-554 144-190 190-261 437-144 554 21 21 28 28 48 48 38 38 111 44 155 0 23-22 60-70 114-147z m221-375l-32-32c-54-54-147-8-234 80-88 88-135 180-80 235l32 31c5 6 7 8 10 11 4 4 7 7 9 11-48 67-81 109-99 127-9 9-30 7-37 0-20-20-27-26-48-48-75-75-18-275 144-436 161-161 361-219 436-143 19 18 35 34 47 46 9 9 10 28 0 39-16 17-57 48-127 99-5-4-11-10-21-20z m168 541l-96-96-95 96-59-59 95-96-95-95 59-59 95 95 96-95 59 59-96 95 96 96-59 59z" horiz-adv-x="1000" />

<glyph glyph-name="call-no" unicode="&#xe871;" d="M54-37l59-59 201 201c185-168 413-226 524-115 19 19 35 35 48 49 38 39 43 109 0 153-22 23-67 59-147 116-25 22-54 17-80-1-13-8-22-17-40-34l-32-32c-3-3-42 15-86 52l445 444-59 59-833-833z m388 270l-69-69c155-139 335-185 406-114 19 18 35 34 47 46 9 9 10 28 0 39-16 17-57 48-127 99-5-4-11-10-21-20l-32-32c-48-48-126-17-204 51z m-51 205c-2-2 1-10 8-23l-62-61c-33 56-41 107-5 143l32 31c5 6 7 8 10 11 4 4 7 7 9 11-48 67-81 109-99 127-9 9-30 7-37 0-20-20-27-26-48-48-62-61-34-207 67-346l-60-60c-129 172-165 366-66 465 21 21 28 28 48 48 38 38 111 44 155 0 23-22 60-70 114-147 25-27 17-57-5-86-5-7-11-14-18-22-3-3-6-6-11-11l-32-32z" horiz-adv-x="1000" />

<glyph glyph-name="call-numbers" unicode="&#xe872;" d="M83 642c0-69 56-125 125-125 69 0 125 56 125 125 0 69-56 125-125 125-69 0-125-56-125-125z m167 0c0-23-19-42-42-42-23 0-41 19-41 42 0 23 18 41 41 41 23 0 42-18 42-41z m250-125c-69 0-125 56-125 125 0 69 56 125 125 125 69 0 125-56 125-125 0-69-56-125-125-125z m42 125c0-23-19-42-42-42-23 0-42 19-42 42 0 23 19 41 42 41 23 0 42-18 42-41z m250-125c-69 0-125 56-125 125 0 69 56 125 125 125 69 0 125-56 125-125 0-69-56-125-125-125z m41 125c0-23-18-42-41-42-23 0-42 19-42 42 0 23 19 41 42 41 23 0 41-18 41-41z m-625-417c-69 0-125 56-125 125 0 69 56 125 125 125 69 0 125-56 125-125 0-69-56-125-125-125z m42 125c0-23-19-42-42-42-23 0-41 19-41 42 0 23 18 42 41 42 23 0 42-19 42-42z m250-125c-69 0-125 56-125 125 0 69 56 125 125 125 69 0 125-56 125-125 0-69-56-125-125-125z m42 125c0-23-19-42-42-42-23 0-42 19-42 42 0 23 19 42 42 42 23 0 42-19 42-42z m250-125c-69 0-125 56-125 125 0 69 56 125 125 125 69 0 125-56 125-125 0-69-56-125-125-125z m41 125c0-23-18-42-41-42-23 0-42 19-42 42 0 23 19 42 42 42 23 0 41-19 41-42z m-333-417c-69 0-125 56-125 125 0 69 56 125 125 125 69 0 125-56 125-125 0-69-56-125-125-125z m42 125c0-23-19-41-42-41-23 0-42 18-42 41 0 23 19 42 42 42 23 0 42-19 42-42z" horiz-adv-x="1000" />

<glyph glyph-name="call-outcoming" unicode="&#xe873;" d="M457 589c25-27 17-57-5-86-5-7-11-14-18-22-3-3-6-6-11-11l-32-32c-5-5 24-62 79-117 56-56 113-84 117-80l32 32c18 17 27 26 40 34 26 18 55 23 80 1 80-57 125-93 147-116 43-44 38-114 0-153-13-14-29-30-48-49-117-117-365-46-554 144-190 190-261 437-144 554 21 21 28 28 48 48 38 38 111 44 155 0 23-22 60-70 114-147z m221-375l-32-32c-54-54-147-8-234 80-88 88-135 180-80 235l32 31c5 6 7 8 10 11 4 4 7 7 9 11-48 67-81 109-99 127-9 9-30 7-37 0-20-20-27-26-48-48-75-75-18-275 144-436 161-161 361-219 436-143 19 18 35 34 47 46 9 9 10 28 0 39-16 17-57 48-127 99-5-4-11-10-21-20z m-65 190l220 220v-149h84v292h-292v-84h149l-220-220 59-59z" horiz-adv-x="1000" />

<glyph glyph-name="call-phone" unicode="&#xe874;" d="M452 503c22 29 30 59 5 86-54 77-91 125-114 147-44 44-117 38-155 0-20-20-27-27-48-48-117-117-46-364 144-554 189-190 437-261 554-144 19 19 35 35 48 49 38 39 43 109 0 153-22 23-67 59-147 116-25 22-54 17-80-1-13-8-22-17-40-34l-32-32c-4-4-61 24-117 80-55 55-84 112-79 117l32 32c5 5 8 8 11 11 7 8 13 15 18 22z m194-321l32 32c10 10 16 16 21 20 70-51 111-82 127-99 10-11 9-30 0-39-12-12-28-28-47-46-75-76-275-18-436 143-162 161-219 361-144 436 21 22 28 28 48 48 7 7 28 9 37 0 18-18 51-60 99-127-2-4-5-7-9-11-3-3-5-5-10-11l-32-31c-55-55-8-147 80-235 87-88 180-134 234-80z" horiz-adv-x="1000" />

<glyph glyph-name="call-recieved" unicode="&#xe875;" d="M457 589c25-27 17-57-5-86-5-7-11-14-18-22-3-3-6-6-11-11l-32-32c-5-5 24-62 79-117 56-56 113-84 117-80l32 32c18 17 27 26 40 34 26 18 55 23 80 1 80-57 125-93 147-116 43-44 38-114 0-153-13-14-29-30-48-49-117-117-365-46-554 144-190 190-261 437-144 554 21 21 28 28 48 48 38 38 111 44 155 0 23-22 60-70 114-147z m221-375l-32-32c-54-54-147-8-234 80-88 88-135 180-80 235l32 31c5 6 7 8 10 11 4 4 7 7 9 11-48 67-81 109-99 127-9 9-30 7-37 0-20-20-27-26-48-48-75-75-18-275 144-436 161-161 361-219 436-143 19 18 35 34 47 46 9 9 10 28 0 39-16 17-57 48-127 99-5-4-11-10-21-20z m168 541l-179-179-96 95-59-59 155-154 238 238-59 59z" horiz-adv-x="1000" />

<glyph glyph-name="call-voicemail" unicode="&#xe876;" d="M417 225h166c-26 35-41 78-41 125 0 115 93 208 208 208 115 0 208-93 208-208 0-115-93-208-208-208h-500c-115 0-208 93-208 208 0 115 93 208 208 208 115 0 208-93 208-208 0-47-15-90-41-125z m-167 0c69 0 125 56 125 125 0 69-56 125-125 125-69 0-125-56-125-125 0-69 56-125 125-125z m625 125c0-69-56-125-125-125-69 0-125 56-125 125 0 69 56 125 125 125 69 0 125-56 125-125z" horiz-adv-x="1000" />

<glyph glyph-name="camera-create" unicode="&#xe877;" d="M289 606c3 5 6 10 11 16 1 3 5 10 8 15l4 6c34 56 59 82 105 82h208v-83h-208c-4 0-15-12-34-43l-3-5 0 0c-3-5-8-13-10-15-5-9-9-15-13-21-19-26-38-41-65-41h-125c-23 0-42-19-42-42v-375c0-23 19-42 42-42h666c23 0 42 19 42 42v250h83v-250c0-69-56-125-125-125h-666c-69 0-125 56-125 125v375c0 69 56 125 125 125h117c1 2 3 4 5 6z m419-89v83h84v83h83v-83h83v-83h-83v-84h-83v84h-84z m-208-417c-115 0-208 93-208 208 0 115 93 209 208 209 115 0 208-94 208-209 0-115-93-208-208-208z m0 83c69 0 125 56 125 125 0 69-56 125-125 125-69 0-125-56-125-125 0-69 56-125 125-125z" horiz-adv-x="1000" />

<glyph glyph-name="camera-no" unicode="&#xe878;" d="M113 796l-59-59 137-137h-24c-69 0-125-56-125-125v-375c0-69 56-125 125-125h649l71-71 59 59-833 833z m620-738l-95 95c-37-34-86-53-138-53-115 0-208 93-208 208 0 52 19 101 52 139l-70 70h-107c-23 0-42-19-42-42v-375c0-23 19-42 42-42h566z m-330 330c-18-22-28-50-28-80 0-69 56-125 125-125 30 0 57 11 79 29l-176 176z m430 212c69 0 125-56 125-125v-375h-83v375c0 23-19 42-42 42h-125c-27 0-46 15-65 41-4 6-8 12-13 21-2 2-7 10-10 15l0 0-3 5c-19 31-30 43-34 43h-166c1 0 1-1-2-3-1-1-2-2-3-3-3-3-16-16-15-15 0 0-60 58-60 58-1-1 13 13 17 17 20 19 38 29 63 29h166c46 0 71-26 105-82l4-6 0 0 0 0c3-5 7-12 9-15 4-6 7-11 10-16 2-2 4-4 5-6h117z m-41-208c23 0 41 18 41 41 0 23-18 42-41 42-23 0-42-19-42-42 0-23 19-41 42-41z" horiz-adv-x="1000" />

<glyph glyph-name="camera" unicode="&#xe879;" d="M289 606c3 5 6 10 11 16 1 3 5 10 8 15l0 0 4 6c34 56 59 82 105 82h166c46 0 71-26 105-82l4-6c3-5 7-12 9-15 4-6 7-11 10-16 2-2 4-4 5-6h117c69 0 125-56 125-125v-375c0-69-56-125-125-125h-666c-69 0-125 56-125 125v375c0 69 56 125 125 125h117c1 2 3 4 5 6z m-122-89c-23 0-42-19-42-42v-375c0-23 19-42 42-42h666c23 0 42 19 42 42v375c0 23-19 42-42 42h-125c-27 0-46 15-65 41-4 6-8 12-13 21-2 2-7 10-10 15l-3 5c-19 31-30 43-34 43h-166c-4 0-15-12-34-43l-3-5 0 0c-3-5-8-13-10-15-5-9-9-15-13-21-19-26-38-41-65-41h-125z m666-84c0-23-18-41-41-41-23 0-42 18-42 41 0 23 19 42 42 42 23 0 41-19 41-42z m-541-125c0-115 93-208 208-208 115 0 208 93 208 208 0 115-93 209-208 209-115 0-208-94-208-209z m333 0c0-69-56-125-125-125-69 0-125 56-125 125 0 69 56 125 125 125 69 0 125-56 125-125z" horiz-adv-x="1000" />

<glyph glyph-name="cart" unicode="&#xe87a;" d="M253 683c-7 0-15-1-21-2-10 20-22 39-36 53-24 23-61 33-113 33v-84c32 0 50-4 54-8 16-16 30-48 30-75l0-6 41-286c-68-3-121-56-125-123l0-43c4-69 57-121 123-125l9 0c18-49 64-84 118-84 55 0 101 35 118 84h98c17-49 63-84 118-84 69 0 125 56 125 125 0 69-56 125-125 125-55 0-101-34-118-83h-98c-17 49-63 83-118 83-54 0-100-34-118-83h-7c-21 1-40 20-41 44l0 39c1 22 20 41 43 42l83 0 0 0h420l6 2c32 10 57 34 69 65l5 8 14 29c15 29 29 58 44 87 35 70 57 114 62 125 25 57-26 100-78 101l-582 41z m446-375h-403c-2 1-4 3-5 6l-41 286 579-41c-10-21-29-58-53-106l0-1c-14-27-29-57-43-86l-15-28-5-11-2-5c-2-6-7-11-12-14z m-32-291c23 0 41 18 41 41 0 23-18 42-41 42-23 0-42-19-42-42 0-23 19-41 42-41z m-292 41c0-23-19-41-42-41-23 0-41 18-41 41 0 23 18 42 41 42 23 0 42-19 42-42z" horiz-adv-x="1000" />

<glyph glyph-name="case" unicode="&#xe87b;" d="M417 725h166c46 0 84-37 84-83v-42h166c46 0 84-37 84-83v-459c0-46-38-83-84-83h-666c-46 0-84 37-84 83v459c0 46 38 83 84 83h166v42c0 46 38 83 84 83z m-250-208h166 334 166v-209h-291-84-291v209z m0-459v167h291v-42h84v42h291v-167h-666z m416 584v-42h-166v42h166z" horiz-adv-x="1000" />

<glyph glyph-name="cast" unicode="&#xe87c;" d="M42 475h83v167h750v-584h-333v-83h333c46 0 83 37 83 83v584c0 46-37 83-83 83h-750c-46 0-83-37-83-83v-167z m416-500h-83c0 184-149 333-333 333v84c230 0 416-187 416-417z m-250 0h84c0 138-112 250-250 250v-83c92 0 166-75 166-167z m-166 83v-83h83c0 46-37 83-83 83z" horiz-adv-x="1000" />

<glyph glyph-name="cd" unicode="&#xe87d;" d="M500-108c-253 0-458 205-458 458 0 253 205 458 458 458 253 0 458-205 458-458 0-253-205-458-458-458z m0 83c207 0 375 168 375 375 0 207-168 375-375 375-207 0-375-168-375-375 0-207 168-375 375-375z m0 667v-84c115 0 208-93 208-208h84c0 161-131 292-292 292z m0-417c-69 0-125 56-125 125 0 69 56 125 125 125 69 0 125-56 125-125 0-69-56-125-125-125z m42 125c0-23-19-42-42-42-23 0-42 19-42 42 0 23 19 42 42 42 23 0 42-19 42-42z" horiz-adv-x="1000" />

<glyph glyph-name="check-mark" unicode="&#xe87e;" d="M405 255l387 387 59-59-446-446-238 237 59 59 179-178z" horiz-adv-x="1000" />

<glyph glyph-name="check-marks" unicode="&#xe87f;" d="M609 600l-336-342-133 136-58-59 191-193 394 400-58 58z m-165-379l79-79 394 400-58 58-336-342-21 22-58-59z" horiz-adv-x="1000" />

<glyph glyph-name="checkbox-checked" unicode="&#xe880;" d="M792 725h-584c-46 0-83-37-83-83v-584c0-45 37-83 83-83h584c46 0 83 38 83 83v584c0 46-37 83-83 83z m-375-583l-209 208 59 59 150-149 316 316 59-59-375-375z" horiz-adv-x="1000" />

<glyph glyph-name="checkbox-unchecked" unicode="&#xe881;" d="M792 642v-584h-584v584h584z m0 83h-584c-45 0-83-37-83-83v-584c0-45 38-83 83-83h584c46 0 83 38 83 83v584c0 46-37 83-83 83z" horiz-adv-x="1000" />

<glyph glyph-name="chevron-bottom" unicode="&#xe882;" d="M804 546l59-59-363-363-363 363 59 59 304-304 304 304z" horiz-adv-x="1000" />

<glyph glyph-name="chevron-left" unicode="&#xe883;" d="M392 350l304-304-59-59-363 363 363 363 59-59-304-304z" horiz-adv-x="1000" />

<glyph glyph-name="chevron-right" unicode="&#xe884;" d="M608 350l-304 304 59 59 363-363-363-363-59 59 304 304z" horiz-adv-x="1000" />

<glyph glyph-name="chevron-top" unicode="&#xe885;" d="M500 458l-304-304-59 59 363 363 363-363-59-59-304 304z" horiz-adv-x="1000" />

<glyph glyph-name="chevrons-bottom" unicode="&#xe886;" d="M721 630l-221-221-220 221-59-59 279-280 280 280-59 59z m59-268l-59 59-221-220-220 220-59-59 279-279 280 279z" horiz-adv-x="1000" />

<glyph glyph-name="chevrons-left" unicode="&#xe887;" d="M471 71l59 59-221 220 221 221-59 59-280-280 280-279z m267 59l-221 220 221 221-59 59-280-280 280-279 59 59z" horiz-adv-x="1000" />

<glyph glyph-name="chevrons-right" unicode="&#xe888;" d="M321 630l-59-59 221-221-221-220 59-59 280 279-280 280z m209 0l-59-59 220-221-220-220 59-59 279 279-279 280z" horiz-adv-x="1000" />

<glyph glyph-name="chevrons-top" unicode="&#xe889;" d="M221 380l59-59 220 220 221-220 59 59-280 279-279-279z m59-268l220 221 221-221 59 59-280 280-279-280 59-59z" horiz-adv-x="1000" />

<glyph glyph-name="chicken" unicode="&#xe88a;" d="M466 433c-75 8-171-25-238-92-83-83-80-186-2-265 78-78 182-81 265 3 65 65 99 160 91 235-3 33-14 63-35 84-20 20-49 31-81 35z m167-10l75 76 29-19c24-16 57-13 78 8 25 24 25 64 0 88-10 10-22 16-35 18l-31 4-5 32c-1 13-7 25-17 35-25 24-64 24-89 0-21-21-24-54-8-79l19-28-75-76c11-7 22-16 32-25 10-11 19-22 27-34z m-145 91l57 58c-18 51-6 111 34 152 57 57 150 57 207 0 15-16 27-34 34-54 20-7 39-19 54-35 57-57 57-149 0-206-41-41-100-53-152-35l-58-58c15-104-29-230-115-317-116-116-272-112-382-2-110 111-114 267 2 383 87 87 215 131 319 114z" horiz-adv-x="1000" />

<glyph glyph-name="circle-arrow-bottom-left" unicode="&#xe88b;" d="M500-108c-253 0-458 205-458 458 0 253 205 458 458 458 253 0 458-205 458-458 0-253-205-458-458-458z m0 83c207 0 375 168 375 375 0 207-168 375-375 375-207 0-375-168-375-375 0-207 168-375 375-375z m125 208v84h-149l220 220-59 59-220-220v149h-84v-292h292z" horiz-adv-x="1000" />

<glyph glyph-name="circle-arrow-bottom-right" unicode="&#xe88c;" d="M500-108c-253 0-458 205-458 458 0 253 205 458 458 458 253 0 458-205 458-458 0-253-205-458-458-458z m0 83c207 0 375 168 375 375 0 207-168 375-375 375-207 0-375-168-375-375 0-207 168-375 375-375z m83 500v-149l-220 220-59-59 220-220h-149v-84h292v292h-84z" horiz-adv-x="1000" />

<glyph glyph-name="circle-arrow-bottom" unicode="&#xe88d;" d="M500-108c-253 0-458 205-458 458 0 253 205 458 458 458 253 0 458-205 458-458 0-253-205-458-458-458z m0 83c207 0 375 168 375 375 0 207-168 375-375 375-207 0-375-168-375-375 0-207 168-375 375-375z m-42 583v-274l-95 96-59-59 196-197 196 197-59 59-95-96v274h-84z" horiz-adv-x="1000" />

<glyph glyph-name="circle-arrow-left-curved" unicode="&#xe88e;" d="M500-108c-253 0-458 205-458 458 0 253 205 458 458 458 253 0 458-205 458-458 0-253-205-458-458-458z m0 83c207 0 375 168 375 375 0 207-168 375-375 375-207 0-375-168-375-375 0-207 168-375 375-375z m-12 321l-96 96h191c46 0 84-38 84-84 0-46-38-83-84-83v-83c92 0 167 74 167 166 0 92-75 167-167 167h-191l96 96-59 59-196-197 196-196 59 59z" horiz-adv-x="1000" />

<glyph glyph-name="circle-arrow-left" unicode="&#xe88f;" d="M500-108c-253 0-458 205-458 458 0 253 205 458 458 458 253 0 458-205 458-458 0-253-205-458-458-458z m0 83c207 0 375 168 375 375 0 207-168 375-375 375-207 0-375-168-375-375 0-207 168-375 375-375z m208 417h-274l96 95-59 59-197-196 197-196 59 59-96 95h274v84z" horiz-adv-x="1000" />

<glyph glyph-name="circle-arrow-right-curved" unicode="&#xe890;" d="M500-108c-253 0-458 205-458 458 0 253 205 458 458 458 253 0 458-205 458-458 0-253-205-458-458-458z m0 83c207 0 375 168 375 375 0 207-168 375-375 375-207 0-375-168-375-375 0-207 168-375 375-375z m12 596l96-96h-191c-92 0-167-75-167-167 0-92 75-166 167-166v83c-46 0-84 37-84 83 0 46 38 84 84 84h191l-96-96 59-59 196 196-196 197-59-59z" horiz-adv-x="1000" />

<glyph glyph-name="circle-arrow-right" unicode="&#xe891;" d="M500-108c-253 0-458 205-458 458 0 253 205 458 458 458 253 0 458-205 458-458 0-253-205-458-458-458z m0 83c207 0 375 168 375 375 0 207-168 375-375 375-207 0-375-168-375-375 0-207 168-375 375-375z m-208 333h274l-95-95 59-59 196 196-196 196-59-59 95-95h-274v-84z" horiz-adv-x="1000" />

<glyph glyph-name="circle-arrow-top-left" unicode="&#xe892;" d="M500-108c-253 0-458 205-458 458 0 253 205 458 458 458 253 0 458-205 458-458 0-253-205-458-458-458z m0 83c207 0 375 168 375 375 0 207-168 375-375 375-207 0-375-168-375-375 0-207 168-375 375-375z m196 238l-220 220h149v84h-292v-292h84v149l220-220 59 59z" horiz-adv-x="1000" />

<glyph glyph-name="circle-arrow-top-right" unicode="&#xe893;" d="M500-108c-253 0-458 205-458 458 0 253 205 458 458 458 253 0 458-205 458-458 0-253-205-458-458-458z m0 83c207 0 375 168 375 375 0 207-168 375-375 375-207 0-375-168-375-375 0-207 168-375 375-375z m-137 179l220 220v-149h84v292h-292v-84h149l-220-220 59-59z" horiz-adv-x="1000" />

<glyph glyph-name="circle-arrow-top" unicode="&#xe894;" d="M500-108c-253 0-458 205-458 458 0 253 205 458 458 458 253 0 458-205 458-458 0-253-205-458-458-458z m0 83c207 0 375 168 375 375 0 207-168 375-375 375-207 0-375-168-375-375 0-207 168-375 375-375z m42 167v274l95-95 59 59-196 196-196-196 59-59 95 95v-274h84z" horiz-adv-x="1000" />

<glyph glyph-name="circle-block" unicode="&#xe895;" d="M500-108c-253 0-458 205-458 458 0 253 205 458 458 458 253 0 458-205 458-458 0-253-205-458-458-458z m293 224c51 64 82 146 82 234 0 207-168 375-375 375-88 0-170-31-234-82l527-527z m-59-59c-64-51-145-82-234-82-207 0-375 168-375 375 0 89 31 170 82 234l527-527z" horiz-adv-x="1000" />

<glyph glyph-name="circle-checked" unicode="&#xe896;" d="M500-108c-253 0-458 205-458 458 0 253 205 458 458 458 253 0 458-205 458-458 0-253-205-458-458-458z m0 83c207 0 375 168 375 375 0 207-168 375-375 375-207 0-375-168-375-375 0-207 168-375 375-375z m137 530l-220-221-96 96-59-59 155-155 279 280-59 59z" horiz-adv-x="1000" />

<glyph glyph-name="circle-chevron-bottom" unicode="&#xe897;" d="M500-108c-253 0-458 205-458 458 0 253 205 458 458 458 253 0 458-205 458-458 0-253-205-458-458-458z m0 83c207 0 375 168 375 375 0 207-168 375-375 375-207 0-375-168-375-375 0-207 168-375 375-375z m196 429l-59 59-137-137-137 137-59-59 196-196 196 196z" horiz-adv-x="1000" />

<glyph glyph-name="circle-chevron-left" unicode="&#xe898;" d="M500-108c-253 0-458 205-458 458 0 253 205 458 458 458 253 0 458-205 458-458 0-253-205-458-458-458z m0 83c207 0 375 168 375 375 0 207-168 375-375 375-207 0-375-168-375-375 0-207 168-375 375-375z m12 179l59 59-137 137 137 137-59 59-196-196 196-196z" horiz-adv-x="1000" />

<glyph glyph-name="circle-chevron-right" unicode="&#xe899;" d="M500-108c-253 0-458 205-458 458 0 253 205 458 458 458 253 0 458-205 458-458 0-253-205-458-458-458z m0 83c207 0 375 168 375 375 0 207-168 375-375 375-207 0-375-168-375-375 0-207 168-375 375-375z m-54 571l-59-59 137-137-137-137 59-59 196 196-196 196z" horiz-adv-x="1000" />

<glyph glyph-name="circle-chevron-top" unicode="&#xe89a;" d="M500-108c-253 0-458 205-458 458 0 253 205 458 458 458 253 0 458-205 458-458 0-253-205-458-458-458z m0 83c207 0 375 168 375 375 0 207-168 375-375 375-207 0-375-168-375-375 0-207 168-375 375-375z m-196 321l59-59 137 137 137-137 59 59-196 196-196-196z" horiz-adv-x="1000" />

<glyph glyph-name="circle-chevrons-bottom" unicode="&#xe89b;" d="M42 350c0-253 205-458 458-458 253 0 458 205 458 458 0 253-205 458-458 458-253 0-458-205-458-458z m833 0c0-207-168-375-375-375-207 0-375 168-375 375 0 207 168 375 375 375 207 0 375-168 375-375z m-238 30l59-59-196-197-196 197 59 59 137-138 137 138z m0 166l-137-137-137 137-59-59 196-196 196 196-59 59z" horiz-adv-x="1000" />

<glyph glyph-name="circle-chevrons-left" unicode="&#xe89c;" d="M42 350c0-253 205-458 458-458 253 0 458 205 458 458 0 253-205 458-458 458-253 0-458-205-458-458z m833 0c0-207-168-375-375-375-207 0-375 168-375 375 0 207 168 375 375 375 207 0 375-168 375-375z m-404-196l-197 196 197 196 59-59-138-137 138-137-59-59z m166 0l59 59-137 137 137 137-59 59-196-196 196-196z" horiz-adv-x="1000" />

<glyph glyph-name="circle-chevrons-right" unicode="&#xe89d;" d="M42 350c0-253 205-458 458-458 253 0 458 205 458 458 0 253-205 458-458 458-253 0-458-205-458-458z m833 0c0-207-168-375-375-375-207 0-375 168-375 375 0 207 168 375 375 375 207 0 375-168 375-375z m-404 137l59 59 196-196-196-196-59 59 137 137-137 137z m-108 59l-59-59 137-137-137-137 59-59 196 196-196 196z" horiz-adv-x="1000" />

<glyph glyph-name="circle-chevrons-top" unicode="&#xe89e;" d="M42 350c0-253 205-458 458-458 253 0 458 205 458 458 0 253-205 458-458 458-253 0-458-205-458-458z m833 0c0-207-168-375-375-375-207 0-375 168-375 375 0 207 168 375 375 375 207 0 375-168 375-375z m-512-196l-59 59 196 196 196-196-59-59-137 137-137-137z m137 422l-196-196 59-59 137 137 137-137 59 59-196 196z" horiz-adv-x="1000" />

<glyph glyph-name="circle-menu" unicode="&#xe89f;" d="M500-108c-253 0-458 205-458 458 0 253 205 458 458 458 253 0 458-205 458-458 0-253-205-458-458-458z m0 83c207 0 375 168 375 375 0 207-168 375-375 375-207 0-375-168-375-375 0-207 168-375 375-375z m-208 208v84h416v-84h-416z m0 334v-84h416v84h-416z m0-125v-84h416v84h-416z" horiz-adv-x="1000" />

<glyph glyph-name="circle-minus" unicode="&#xe8a0;" d="M500-108c-253 0-458 205-458 458 0 253 205 458 458 458 253 0 458-205 458-458 0-253-205-458-458-458z m0 83c207 0 375 168 375 375 0 207-168 375-375 375-207 0-375-168-375-375 0-207 168-375 375-375z m-208 417v-84h416v84h-416z" horiz-adv-x="1000" />

<glyph glyph-name="circle-more-horizontal" unicode="&#xe8a1;" d="M500-108c-253 0-458 205-458 458 0 253 205 458 458 458 253 0 458-205 458-458 0-253-205-458-458-458z m0 83c207 0 375 168 375 375 0 207-168 375-375 375-207 0-375-168-375-375 0-207 168-375 375-375z m-125 375c0-23-19-42-42-42-23 0-41 19-41 42 0 23 18 42 41 42 23 0 42-19 42-42z m125-42c23 0 42 19 42 42 0 23-19 42-42 42-23 0-42-19-42-42 0-23 19-42 42-42z m208 42c0-23-18-42-41-42-23 0-42 19-42 42 0 23 19 42 42 42 23 0 41-19 41-42z" horiz-adv-x="1000" />

<glyph glyph-name="circle-more-vertical" unicode="&#xe8a2;" d="M500-108c-253 0-458 205-458 458 0 253 205 458 458 458 253 0 458-205 458-458 0-253-205-458-458-458z m0 83c207 0 375 168 375 375 0 207-168 375-375 375-207 0-375-168-375-375 0-207 168-375 375-375z m42 208c0-23-19-41-42-41-23 0-42 18-42 41 0 23 19 42 42 42 23 0 42-19 42-42z m-42 125c23 0 42 19 42 42 0 23-19 42-42 42-23 0-42-19-42-42 0-23 19-42 42-42z m42 209c0-23-19-42-42-42-23 0-42 19-42 42 0 23 19 41 42 41 23 0 42-18 42-41z" horiz-adv-x="1000" />

<glyph glyph-name="circle-plus" unicode="&#xe8a3;" d="M500-108c-253 0-458 205-458 458 0 253 205 458 458 458 253 0 458-205 458-458 0-253-205-458-458-458z m0 83c207 0 375 168 375 375 0 207-168 375-375 375-207 0-375-168-375-375 0-207 168-375 375-375z m208 417h-166v166h-84v-166h-166v-84h166v-166h84v166h166v84z" horiz-adv-x="1000" />

<glyph glyph-name="circle-star" unicode="&#xe8a4;" d="M42 350c0-253 205-458 458-458 253 0 458 205 458 458 0 253-205 458-458 458-253 0-458-205-458-458z m833 0c0-207-168-375-375-375-207 0-375 168-375 375 0 207 168 375 375 375 207 0 375-168 375-375z m-559-247l35 205-149 145 206 30 92 186 92-186 206-30-149-145 35-205-184 96-184-96z m243 234l14-82-73 39-73-39 14 82-60 58 82 12 37 74 37-74 82-12-60-58z" horiz-adv-x="1000" />

<glyph glyph-name="circle-x" unicode="&#xe8a5;" d="M500-108c-253 0-458 205-458 458 0 253 205 458 458 458 253 0 458-205 458-458 0-253-205-458-458-458z m0 83c207 0 375 168 375 375 0 207-168 375-375 375-207 0-375-168-375-375 0-207 168-375 375-375z m-137 179l137 137 137-137 59 59-137 137 137 137-59 59-137-137-137 137-59-59 137-137-137-137 59-59z" horiz-adv-x="1000" />

<glyph glyph-name="circle" unicode="&#xe8a6;" d="M42 350c0-253 205-458 458-458 253 0 458 205 458 458 0 253-205 458-458 458-253 0-458-205-458-458z m833 0c0-207-168-375-375-375-207 0-375 168-375 375 0 207 168 375 375 375 207 0 375-168 375-375z" horiz-adv-x="1000" />

<glyph glyph-name="clear-style" unicode="&#xe8a7;" d="M542 17v232l345-345 59 59-833 833-59-59 71-71v-64l66-2 267-267v-316h-83v-84h250v84h-83z m-84 550l84-83v199h250v-81l83-2v167h-616l83-84h116v-116z" horiz-adv-x="1000" />

<glyph glyph-name="clipboard-checked" unicode="&#xe8a8;" d="M375 767c31 26 77 41 125 41 48 0 94-15 125-41h42c46 0 83-38 83-84h42c46 0 83-37 83-83v-625c0-46-37-83-83-83h-584c-46 0-83 37-83 83v625c0 46 37 83 83 83h42c0 46 37 84 83 84h42z m292-209c31 0 57 17 72 42h53v-625h-584v625h53c15-25 42-42 72-42h334z m-30-137l-179-179-95 96-59-59 154-155 238 238-59 59z m-226 262l12 15c14 16 43 27 77 27 34 0 63-11 77-27l12-15h78v-41h-334v41h59 19z" horiz-adv-x="1000" />

<glyph glyph-name="clipboard-delete" unicode="&#xe8a9;" d="M375 767c31 26 77 41 125 41 48 0 94-15 125-41h42c46 0 83-38 83-84h42c46 0 83-37 83-83v-625c0-46-37-83-83-83h-584c-46 0-83 37-83 83v625c0 46 37 83 83 83h42c0 46 37 84 83 84h42z m292-209c31 0 57 17 72 42h53v-625h-584v625h53c15-25 42-42 72-42h334z m-71-137l-96-95-95 95-59-59 95-95-95-96 59-59 95 96 96-96 59 59-96 96 96 95-59 59z m-185 262l12 15c14 16 43 27 77 27 34 0 63-11 77-27l12-15h78v-41h-334v41h59 19z" horiz-adv-x="1000" />

<glyph glyph-name="clipboard-minus" unicode="&#xe8aa;" d="M375 767c31 26 77 41 125 41 48 0 94-15 125-41h42c46 0 83-38 83-84h42c46 0 83-37 83-83v-625c0-46-37-83-83-83h-584c-46 0-83 37-83 83v625c0 46 37 83 83 83h42c0 46 37 84 83 84h42z m292-209c31 0 57 17 72 42h53v-625h-584v625h53c15-25 42-42 72-42h334z m0-333v83h-334v-83h334z m-256 458l12 15c14 16 43 27 77 27 34 0 63-11 77-27l12-15h78v-41h-334v41h59 19z" horiz-adv-x="1000" />

<glyph glyph-name="clipboard-plus" unicode="&#xe8ab;" d="M375 767c31 26 77 41 125 41 48 0 94-15 125-41h42c46 0 83-38 83-84h42c46 0 83-37 83-83v-625c0-46-37-83-83-83h-584c-46 0-83 37-83 83v625c0 46 37 83 83 83h42c0 46 37 84 83 84h42z m292-209c31 0 57 17 72 42h53v-625h-584v625h53c15-25 42-42 72-42h334z m-209-125v-125h-125v-83h125v-125h84v125h125v83h-125v125h-84z m-47 250l12 15c14 16 43 27 77 27 34 0 63-11 77-27l12-15h78v-41h-334v41h59 19z" horiz-adv-x="1000" />

<glyph glyph-name="clipboard-text" unicode="&#xe8ac;" d="M375 767c31 26 77 41 125 41 48 0 94-15 125-41h42c46 0 83-38 83-84h42c46 0 83-37 83-83v-625c0-46-37-83-83-83h-584c-46 0-83 37-83 83v625c0 46 37 83 83 83h42c0 46 37 84 83 84h42z m292-209c31 0 57 17 72 42h53v-625h-584v625h53c15-25 42-42 72-42h334z m-334-375v84h250v-84h-250z m0 250v-83h334v83h-334z m78 250l12 15c14 16 43 27 77 27 34 0 63-11 77-27l12-15h78v-41h-334v41h59 19z" horiz-adv-x="1000" />

<glyph glyph-name="clipboard" unicode="&#xe8ad;" d="M375 767c31 26 77 41 125 41 48 0 94-15 125-41h42c46 0 83-38 83-84h42c46 0 83-37 83-83v-625c0-46-37-83-83-83h-584c-46 0-83 37-83 83v625c0 46 37 83 83 83h42c0 46 37 84 83 84h42z m292-209c31 0 57 17 72 42h53v-625h-584v625h53c15-25 42-42 72-42h334z m-256 125l12 15c14 16 43 27 77 27 34 0 63-11 77-27l12-15h78v-41h-334v41h59 19z" horiz-adv-x="1000" />

<glyph glyph-name="cloud-checked" unicode="&#xe8ae;" d="M958 267c0-115-93-209-208-209h-458c-138 0-250 112-250 250 0 127 94 232 217 248 54 79 143 127 241 127 132 0 245-87 280-210 101-15 178-101 178-206z m-208-125c69 0 125 56 125 125 0 69-56 125-125 125l-1 0-2 0-36-1-5 35c-17 100-104 174-206 174-75 0-144-40-181-104l-11-20-23-1c-89-4-160-77-160-167 0-92 75-166 167-166h458z m-196 321l-137-137-54 54-59-59 113-113 196 196-59 59z" horiz-adv-x="1000" />

<glyph glyph-name="cloud-connect" unicode="&#xe8af;" d="M917 413c0-105-89-188-196-188h-179v-49c35-12 63-40 76-76h215v-83h-215c-17-49-64-84-118-84-54 0-101 35-118 84h-215v83h215c13 36 41 64 76 76v49h-156c-120 0-219 93-219 208 0 98 71 181 167 203 49 80 145 131 250 131 124 0 233-71 271-173 84-21 146-95 146-181z m-375-355c0-23-19-41-42-41-23 0-42 18-42 41 0 23 19 42 42 42 23 0 42-19 42-42z m192 458c57-6 99-51 99-103 0-57-50-105-112-105h-419c-75 0-135 57-135 125 0 62 49 115 115 124l22 3 10 20c31 61 103 103 186 103 98 0 180-58 197-135l7-29 30-3z" horiz-adv-x="1000" />

<glyph glyph-name="cloud-download" unicode="&#xe8b0;" d="M750 142v-84c115 0 208 94 208 209 0 105-77 191-178 206-35 123-148 210-280 210-98 0-187-48-241-127-123-16-217-121-217-248 0-123 90-226 208-246v85c-72 18-125 84-125 161 0 90 71 163 160 167l23 1 11 20c37 64 106 104 181 104 102 0 189-74 206-174l5-35 36 1c1 0 1 0 2 0 0 0 0 0 1 0 69 0 125-56 125-125 0-69-56-125-125-125z m-292 208v-261l-95 94-59-58 196-192 196 192-59 58-95-94v261h-84z" horiz-adv-x="1000" />

<glyph glyph-name="cloud-no" unicode="&#xe8b1;" d="M733 58h-441c-138 0-250 112-250 250 0 120 84 220 196 245l-184 184 59 59 833-833-59-59-154 154z m-422 422l-3-4-23-1c-89-4-160-77-160-167 0-92 75-166 167-166h357l-338 338z m532-297l59-59c35 37 56 87 56 143 0 105-77 191-178 206-35 123-148 210-280 210-45 0-89-10-128-29l64-64c20 7 42 10 64 10 102 0 189-74 206-174l5-35 36 1c1 0 1 0 2 0 0 0 0 0 1 0 69 0 125-56 125-125 0-33-12-62-32-84z" horiz-adv-x="1000" />

<glyph glyph-name="cloud-upload" unicode="&#xe8b2;" d="M708 142v-84h42c115 0 208 94 208 209 0 105-77 191-178 206-35 123-148 210-280 210-98 0-187-48-241-127-123-16-217-121-217-248 0-138 112-250 250-250v84c-92 0-167 74-167 166 0 90 71 163 160 167l23 1 11 20c37 64 106 104 181 104 102 0 189-74 206-174l5-35 36 1c1 0 1 0 2 0 0 0 0 0 1 0 69 0 125-56 125-125 0-69-56-125-125-125h-42z m-166-167v274l95-95 59 59-196 196-196-196 59-59 95 95v-274h84z" horiz-adv-x="1000" />

<glyph glyph-name="cloud" unicode="&#xe8b3;" d="M750 58c115 0 208 94 208 209 0 105-77 191-178 206-35 123-148 210-280 210-98 0-187-48-241-127-123-16-217-121-217-248 0-138 112-250 250-250h458z m125 209c0-69-56-125-125-125h-458c-92 0-167 74-167 166 0 90 71 163 160 167l23 1 11 20c37 64 106 104 181 104 102 0 189-74 206-174l5-35 36 1c1 0 1 0 2 0 0 0 0 0 1 0 69 0 125-56 125-125z" horiz-adv-x="1000" />

<glyph glyph-name="code" unicode="&#xe8b4;" d="M500-108c-253 0-458 205-458 458 0 253 205 458 458 458 253 0 458-205 458-458 0-253-205-458-458-458z m0 83c207 0 375 168 375 375 0 207-168 375-375 375-207 0-375-168-375-375 0-207 168-375 375-375z m-154 179l59 59-138 137 138 137-59 59-197-196 197-196z m250 333l59 59 196-196-196-196-59 59 137 137-137 137z m-179-380l82-14 84 500-82 14-84-500z" horiz-adv-x="1000" />

<glyph glyph-name="coffee" unicode="&#xe8b5;" d="M182 723l19 39c14 29 43 46 75 46h448c32 0 61-17 75-46l19-39c31-6 56-30 64-61l21-83c11-45-16-90-61-101-5-2-9-2-14-3l-83-583h-489l-84 583c-43 3-77 39-77 83 0 7 1 14 3 21l20 83c8 31 33 55 64 61z m74-248h488l-72-500h-344l-72 500z m-57 167h35l42 83h448l42-83h35l21-84h-644l21 84z" horiz-adv-x="1000" />

<glyph glyph-name="color" unicode="&#xe8b6;" d="M188 600c0 35 28 63 62 63h500c35 0 63-28 63-63v-500c0-34-28-62-63-62h-500c-34 0-62 28-62 62v500z" horiz-adv-x="1000" />

<glyph glyph-name="command" unicode="&#xe8b7;" d="M583 517h-166v83c0 92-75 167-167 167-92 0-167-75-167-167 0-92 75-167 167-167h83v-166h-83c-92 0-167-75-167-167 0-92 75-167 167-167 92 0 167 75 167 167v83h166v-83c0-92 75-167 167-167 92 0 167 75 167 167 0 92-75 167-167 167h-83v166h83c92 0 167 75 167 167 0 92-75 167-167 167-92 0-167-75-167-167v-83z m-166-250v166h166v-166h-166z m250-84v-83c0-46 37-83 83-83 46 0 83 37 83 83 0 46-37 83-83 83h-83z m-417 0h83v-83c0-46-37-83-83-83-46 0-83 37-83 83 0 46 37 83 83 83z m417 334h83c46 0 83 37 83 83 0 46-37 83-83 83-46 0-83-37-83-83v-83z m-334 83v-83h-83c-46 0-83 37-83 83 0 46 37 83 83 83 46 0 83-37 83-83z" horiz-adv-x="1000" />

<glyph glyph-name="comment-checked" unicode="&#xe8b8;" d="M504 100l-254-159v159h-83c-46 0-84 37-84 83v500c0 46 38 84 84 84h666c46 0 84-38 84-84v-500c0-46-38-83-84-83h-329z m-171-8l147 91h353v500h-666v-500h166v-91z m304 496l-179-179-95 96-59-59 154-155 238 238-59 59z" horiz-adv-x="1000" />

<glyph glyph-name="comment-delete" unicode="&#xe8b9;" d="M504 100l-254-159v159h-83c-46 0-84 37-84 83v500c0 46 38 84 84 84h666c46 0 84-38 84-84v-500c0-46-38-83-84-83h-329z m-171-8l147 91h353v500h-666v-500h166v-91z m263 496l-96-96-95 96-59-59 95-96-95-95 59-59 95 95 96-95 59 59-96 95 96 96-59 59z" horiz-adv-x="1000" />

<glyph glyph-name="comment-minus" unicode="&#xe8ba;" d="M504 100l-254-159v159h-83c-46 0-84 37-84 83v500c0 46 38 84 84 84h666c46 0 84-38 84-84v-500c0-46-38-83-84-83h-329z m-171-8l147 91h353v500h-666v-500h166v-91z m0 383v-83h334v83h-334z" horiz-adv-x="1000" />

<glyph glyph-name="comment-plus" unicode="&#xe8bb;" d="M504 100l-254-159v159h-83c-46 0-84 37-84 83v500c0 46 38 84 84 84h666c46 0 84-38 84-84v-500c0-46-38-83-84-83h-329z m-171-8l147 91h353v500h-666v-500h166v-91z m125 508v-125h-125v-83h125v-125h84v125h125v83h-125v125h-84z" horiz-adv-x="1000" />

<glyph glyph-name="comment-text" unicode="&#xe8bc;" d="M250-59l254 159h329c46 0 84 37 84 83v500c0 46-38 84-84 84h-666c-46 0-84-38-84-84v-500c0-46 38-83 84-83h83v-159z m230 242l-147-91v91h-166v500h666v-500h-353z m-188 125v84h291v-84h-291z m0 250v-83h375v83h-375z" horiz-adv-x="1000" />

<glyph glyph-name="comment" unicode="&#xe8bd;" d="M250-59l254 159h329c46 0 84 37 84 83v500c0 46-38 84-84 84h-666c-46 0-84-38-84-84v-500c0-46 38-83 84-83h83v-159z m230 242l-147-91v91h-166v500h666v-500h-353z" horiz-adv-x="1000" />

<glyph glyph-name="compas" unicode="&#xe8be;" d="M500-108c-253 0-458 205-458 458 0 253 205 458 458 458 253 0 458-205 458-458 0-253-205-458-458-458z m0 83c207 0 375 168 375 375 0 207-168 375-375 375-207 0-375-168-375-375 0-207 168-375 375-375z m116 259l117 349-349-117-116-348 348 116z m-66 66l-151-51 51 151 151 51-51-151z" horiz-adv-x="1000" />

<glyph glyph-name="contrast" unicode="&#xe8bf;" d="M500-108c-253 0-458 205-458 458 0 253 205 458 458 458 253 0 458-205 458-458 0-253-205-458-458-458z m83 92c30 7 58 17 84 30v672c-26 13-54 23-84 30v-732z m250 194c-21-41-49-77-83-107v559c34-31 62-67 83-108v-344z m-333-203v750c-207 0-375-168-375-375 0-207 168-375 375-375z" horiz-adv-x="1000" />

<glyph glyph-name="copy" unicode="&#xe8c0;" d="M417 767h416c48 0 84-36 84-84v-416c0-48-36-84-84-84h-166v-166c0-48-36-84-84-84h-416c-48 0-84 36-84 84v416c0 48 36 84 84 84h166v166c0 48 36 84 84 84z m-84-334h-166v-416h416v166h-166c-48 0-84 36-84 84v166z m84 250v-416h416v416h-416z" horiz-adv-x="1000" />

<glyph glyph-name="coupon" unicode="&#xe8c1;" d="M958 100c0-46-37-83-83-83h-750c-46 0-83 37-83 83v130l21 12c38 22 62 63 62 108 0 45-24 86-62 108l-21 12v130c0 46 37 83 83 83h750c46 0 83-37 83-83v-130l-20-12c-39-22-63-63-63-108 0-45 24-86 63-108l20-12v-130z m-166 250c0 67 31 128 83 167v83h-250c0-23-19-42-42-42-23 0-41 19-41 42h-417v-83c52-39 83-100 83-167 0-67-31-128-83-167v-83h417c0 23 18 42 41 42 23 0 42-19 42-42h250v83c-52 39-83 100-83 167z m-209-167c23 0 42 19 42 42 0 23-19 42-42 42-23 0-41-19-41-42 0-23 18-42 41-42z m42 167c0-23-19-42-42-42-23 0-41 19-41 42 0 23 18 42 41 42 23 0 42-19 42-42z m-42 83c23 0 42 19 42 42 0 23-19 42-42 42-23 0-41-19-41-42 0-23 18-42 41-42z" horiz-adv-x="1000" />

<glyph glyph-name="creditcard-1" unicode="&#xe8c2;" d="M117 683h766c41 0 75-37 75-83v-500c0-46-34-83-75-83h-766c-41 0-75 37-75 83v500c0 46 34 83 75 83z m8-291v-292h750v292h-750z m0 83h750v125h-750v-125z" horiz-adv-x="1000" />

<glyph glyph-name="creditcard-add" unicode="&#xe8c3;" d="M883 725h-766c-41 0-75-37-75-83v-500c0-46 34-84 75-84h466v84h-458v291h750v-125h83v334c0 46-34 83-75 83z m-8-208v125h-750v-125h750z m-167-459v84h84v83h83v-83h83v-84h-83v-83h-83v83h-84z" horiz-adv-x="1000" />

<glyph glyph-name="creditcard-face" unicode="&#xe8c4;" d="M117 725h766c41 0 75-37 75-83v-500c0-46-34-84-75-84h-766c-41 0-75 38-75 84v500c0 46 34 83 75 83z m8-83v-500h750v500h-750z m83-334v-83h84v83h-84z m125-83v83h125v-83h-125z m375 83v-83h84v83h-84z m-125-83v83h84v-83h-84z m-250 292h-125v-125h125v125z" horiz-adv-x="1000" />

<glyph glyph-name="creditcard-income" unicode="&#xe8c5;" d="M117 725h766c41 0 75-37 75-83v-500c0-46-34-84-75-84h-425v84h417v291h-750v-83h-83v292c0 46 34 83 75 83z m758-83v-125h-750v125h750z m-833-500h191l-54-54 59-59 154 154-154 155-59-59 54-54h-191v-83z" horiz-adv-x="1000" />

<glyph glyph-name="creditcard-no" unicode="&#xe8c6;" d="M117 58h657l113-113 59 60-833 833-59-59 54-55c-37-4-66-40-66-82v-500c0-46 34-84 75-84z m8 584h66l125-125h-191v125z m274-209h-274v-291h566l-292 291z m-57 292l84-83h449v-125h-324l83-84h241v-241l79-79c3 9 4 19 4 29v500c0 46-34 83-75 83h-541z" horiz-adv-x="1000" />

<glyph glyph-name="creditcard-outcome" unicode="&#xe8c7;" d="M117 725h766c41 0 75-37 75-83v-292h-83v83h-750v-291h375v-84h-383c-41 0-75 38-75 84v500c0 46 34 83 75 83z m758-83v-125h-750v125h750z m-292-500h191l-53-54 59-59 154 154-154 155-59-59 53-54h-191v-83z" horiz-adv-x="1000" />

<glyph glyph-name="creditcard-scan" unicode="&#xe8c8;" d="M208 725v-83h-83v-84h-83v84c0 46 34 83 75 83h91z m34-125h516c41 0 75-37 75-83v-334c0-46-34-83-75-83h-516c-41 0-75 37-75 83v334c0 46 34 83 75 83z m8-250v-167h500v167h-500z m0 83h500v84h-500v-84z m542-375v-83h91c41 0 75 37 75 83v84h-83v-84h-83z m0 667h91c41 0 75-37 75-83v-84h-83v84h-83v83z m-675-750h91v83h-83v84h-83v-84c0-46 34-83 75-83z" horiz-adv-x="1000" />

<glyph glyph-name="creditcard" unicode="&#xe8c9;" d="M117 725h766c41 0 75-37 75-83v-500c0-46-34-84-75-84h-766c-41 0-75 38-75 84v500c0 46 34 83 75 83z m8-292v-291h750v291h-750z m0 84h750v125h-750v-125z" horiz-adv-x="1000" />

<glyph glyph-name="cross" unicode="&#xe8ca;" d="M824 517h-157v157c0 51-34 93-76 93h-182c-42 0-76-42-76-93v-157h-157c-51 0-93-34-93-76v-182c0-42 42-76 93-76h157v-157c0-51 34-93 76-93h182c42 0 76 42 76 93v157h157c51 0 93 34 93 76v182c0 42-42 76-93 76z m9-84h-250v250h-166v-250h-250v-166h250v-250h166v250h250v166z" horiz-adv-x="1000" />

<glyph glyph-name="crosshairs" unicode="&#xe8cb;" d="M458 808h84v-85c174-19 312-157 331-331h85v-84h-85c-19-173-157-312-331-331v-85h-84v85c-173 19-311 158-331 331h-85v84h85c20 174 158 312 331 331v85z m-247-500h81v84h-81c19 127 120 228 247 247v-81h84v81c127-19 228-120 247-247h-81v-84h81c-19-127-120-228-247-247v81h-84v-81c-127 19-228 120-247 247z m206 42c0-46 37-83 83-83 46 0 83 37 83 83 0 46-37 83-83 83-46 0-83-37-83-83z" horiz-adv-x="1000" />

<glyph glyph-name="cup" unicode="&#xe8cc;" d="M542 58v45c82 12 154 58 199 124 113 16 176 114 176 248v125c0 46-38 83-84 83h-52c-15 25-42 42-73 42h-416c-31 0-58-17-72-42h-53c-46 0-84-37-84-83v-125c0-134 63-232 176-248 45-66 117-112 199-124v-45h-41c-46 0-84-37-84-83h334c0 46-38 83-84 83h-41z m-375 542h41v-208c0-19 2-38 6-56-31 28-47 75-47 139v125z m625 0v-208c0-19-2-38-6-56 31 28 47 75 47 139v125h-41z m-500-208v250h416v-250c0-115-93-209-208-209-115 0-208 94-208 209z" horiz-adv-x="1000" />

<glyph glyph-name="cut-coupon" unicode="&#xe8cd;" d="M208 517c26 0 50 7 70 21l83-63-83-63c-20 14-44 21-70 21-69 0-125-56-125-125 0-69 56-125 125-125 69 0 125 56 125 125 0 13-2 26-5 38l103 77 252-190 50 67-233 175 233 175-50 67-252-190-103 77c3 12 5 25 5 38 0 69-56 125-125 125-69 0-125-56-125-125 0-69 56-125 125-125z m584-84h-84v84h84v-84z m41-125h84v84h-84v-84z m0-41v-84h84v84h-84z m0-334v84h84v-84h-84z m0 209v-84h84v84h-84z m-125-209v84h84v-84h-84z m-125 84v-84h84v84h-84z m-250-84v84h84v-84h-84z m125 84v-84h84v84h-84z m-250-84v84h84v-84h-84z m0 209v-84h84v84h-84z m459 375h-84v-84h84v84z m250-84h-84v84h84v-84z m-709-166c23 0 42 18 42 41 0 23-19 42-42 42-23 0-41-19-41-42 0-23 18-41 41-41z m42 375c0-23-19-42-42-42-23 0-41 19-41 42 0 23 18 41 41 41 23 0 42-18 42-41z" horiz-adv-x="1000" />

<glyph glyph-name="cut" unicode="&#xe8ce;" d="M742 790l69-47-261-387 98-145c19 7 39 11 60 11 92 0 167-75 167-167 0-92-75-167-167-167-92 0-166 75-166 167 0 41 14 78 38 107l-80 119-80-119c24-29 38-66 38-107 0-92-74-167-166-167-92 0-167 75-167 167 0 92 75 167 167 167 21 0 41-4 60-11l98 145-261 387 69 47 242-359 242 359z m-367-735c0-46-37-83-83-83-46 0-84 37-84 83 0 46 38 83 84 83 46 0 83-37 83-83z m417 0c0-46-38-83-84-83-46 0-83 37-83 83 0 46 37 83 83 83 46 0 84-37 84-83z" horiz-adv-x="1000" />

<glyph glyph-name="dashboard" unicode="&#xe8cf;" d="M225-58c-115 86-183 220-183 366 0 254 205 459 458 459 253 0 458-205 458-459 0-146-68-280-183-366l-11-9h-528l-11 9z m511 75c87 70 139 177 139 291 0 207-168 375-375 375-207 0-375-168-375-375 0-114 52-221 139-291h472z m-14 517l-69 48-109-156c-14 5-29 7-44 7-69 0-125-56-125-125 0-69 56-125 125-125 69 0 125 56 125 125 0 24-6 45-17 64l114 162z m-180-226c0-23-19-41-42-41-23 0-42 18-42 41 0 23 19 42 42 42 23 0 42-19 42-42z" horiz-adv-x="1000" />

<glyph glyph-name="database" unicode="&#xe8d0;" d="M208 350v141c69-37 175-58 292-58 117 0 223 21 292 58v-141c0-35-130-83-292-83-162 0-292 48-292 83z m-83 0v250c0 103 169 167 375 167 206 0 375-64 375-167v-250-250c0-103-169-167-375-167-206 0-375 64-375 167v250z m667-109v-141c0-35-130-83-292-83-162 0-292 48-292 83v141c69-37 175-58 292-58 117 0 223 21 292 58z m-292 276c162 0 292 48 292 83 0 35-130 83-292 83-162 0-292-48-292-83 0-35 130-83 292-83z" horiz-adv-x="1000" />

<glyph glyph-name="delete" unicode="&#xe8d1;" d="M333 683h542c46 0 83-37 83-83v-500c0-46-37-83-83-83h-542c-21 0-30 7-49 28-2 2-4 4-6 7-8 8-15 17-18 21l-231 277 22 27 207 247c4 6 11 15 18 24 3 3 6 7 9 10 16 17 28 25 48 25z m7-89c-6-7-11-14-16-21l-186-223 187-225c3-4 9-11 15-18 2-2 3-3 4-5 1-1 2-1 2-2h529v500h-530c-2-2-3-4-5-6z m339-89l-96-96-95 96-59-59 95-96-95-95 59-59 95 95 96-95 59 59-96 95 96 96-59 59z" horiz-adv-x="1000" />

<glyph glyph-name="delivery" unicode="&#xe8d2;" d="M683 558l76-153 116-77v-145h-49c-17 49-63 84-118 84-54 0-100-35-118-84h-180c-18 49-64 84-118 84-55 0-101-35-118-84h-49v375h558z m192-458h-49c-17-48-63-83-118-83-54 0-100 35-118 83h-180c-18-48-64-83-118-83-55 0-101 35-118 83h-49c-46 0-83 37-83 83v375c0 46 37 84 83 84h558c31 0 60-18 74-46l67-134 134-90v-189c0-46-37-83-83-83z m-542 42c0-23-18-42-41-42-23 0-42 19-42 42 0 23 19 41 42 41 23 0 41-18 41-41z m417 0c0-23-19-42-42-42-23 0-41 19-41 42 0 23 18 41 41 41 23 0 42-18 42-41z" horiz-adv-x="1000" />

<glyph glyph-name="devices" unicode="&#xe8d3;" d="M125 600v-375h-83v-125c0-46 37-83 83-83h542 208c46 0 83 37 83 83v375c0 46-37 83-83 83v42c0 46-37 83-83 83h-584c-46 0-83-37-83-83z m667-42v42h-584v-375h375v250c0 46 38 83 84 83h125z m-667-416h458v-42h-458v42z m750-42h-208v375h208v-375z" horiz-adv-x="1000" />

<glyph glyph-name="direction-45" unicode="&#xe8d4;" d="M875 725l-833-357 343-133 133-343 357 833z m-353-613l-73 187-187 73 454 194-194-454z" horiz-adv-x="1000" />

<glyph glyph-name="direction" unicode="&#xe8d5;" d="M500 793l-369-897 369 159 369-159-369 897z m214-739l-214 91-214-91 214 520 214-520z" horiz-adv-x="1000" />

<glyph glyph-name="discount" unicode="&#xe8d6;" d="M500-108c-253 0-458 205-458 458 0 253 205 458 458 458 253 0 458-205 458-458 0-253-205-458-458-458z m0 83c207 0 375 168 375 375 0 207-168 375-375 375-207 0-375-168-375-375 0-207 168-375 375-375z m42 250c0-69 56-125 125-125 69 0 125 56 125 125 0 69-56 125-125 125-69 0-125-56-125-125z m125-42c23 0 41 19 41 42 0 23-18 42-41 42-23 0-42-19-42-42 0-23 19-42 42-42z m-459 292c0-69 56-125 125-125 69 0 125 56 125 125 0 69-56 125-125 125-69 0-125-56-125-125z m125-42c23 0 42 19 42 42 0 23-19 42-42 42-23 0-41-19-41-42 0-23 18-42 41-42z m89-333l250 500h-94l-250-500h94z" horiz-adv-x="1000" />

<glyph glyph-name="download-bold" unicode="&#xe8d7;" d="M292 558v125c0 46 37 84 83 84h250c46 0 83-38 83-84v-125-166h209l-417-358-417 358h209v166z m333 125v-125-166-84h54l-179-164-179 164h54v84 166 125h250z m167-750c46 0 83 38 83 84h-750c0-46 37-84 83-84h584z" horiz-adv-x="1000" />

<glyph glyph-name="download" unicode="&#xe8d8;" d="M679 463l-137-137v441h-84v-441l-137 137-59-59 238-238 238 238-59 59z m238-446v166h-84v-166h-666v166h-84v-166c0-46 38-84 84-84h666c46 0 84 38 84 84z" horiz-adv-x="1000" />

<glyph glyph-name="dribbble" unicode="&#xe8d9;" d="M500-108c-253 0-458 205-458 458 0 253 205 458 458 458 253 0 458-205 458-458 0-253-205-458-458-458z m370 394c-81 18-156 23-227 14 35-86 61-171 77-254 77 56 133 141 150 240z m-227-283c-15 90-42 183-82 279-112-35-210-109-296-225 65-51 146-82 235-82 51 0 99 10 143 28z m-437 114c92 121 199 202 320 242-7 16-16 32-24 49-22-6-44-11-67-15-93-17-174-20-304-18-2 0-4 0-5 0-1-8-1-17-1-25 0-88 30-169 81-233z m-65 341c29 99 99 181 190 227 49-68 92-136 130-201-13-4-27-6-41-9-84-15-159-19-279-17z m271 257c49-70 92-139 130-206 80 30 142 76 184 140-62 48-141 76-226 76-30 0-60-4-88-10z m376-124c50-61 82-137 87-221-95 20-183 23-266 9-9 18-18 37-27 55 86 35 155 86 206 157z" horiz-adv-x="1000" />

<glyph glyph-name="drop" unicode="&#xe8da;" d="M527 798c231-201 348-377 348-531 0-219-171-375-375-375-204 0-375 156-375 375 0 154 117 330 348 531l27 24 27-24z m-319-531c0-171 132-292 292-292 160 0 292 121 292 292 0 118-96 268-292 444-196-176-292-326-292-444z m292-167v-83c138 0 250 112 250 250h-83c0-92-75-167-167-167z" horiz-adv-x="1000" />

<glyph glyph-name="edit-shape" unicode="&#xe8db;" d="M958 58c0 55-34 101-83 118v348c49 17 83 63 83 118 0 69-56 125-125 125-54 0-100-35-118-84h-430c-18 49-64 84-118 84-69 0-125-56-125-125 0-55 35-101 83-118v-348c-48-17-83-63-83-118 0-69 56-125 125-125 54 0 100 35 118 84h430c18-49 64-84 118-84 69 0 125 56 125 125z m-166 466v-348c-36-12-64-40-77-76h-430c-13 36-41 64-77 76v348c36 12 64 41 77 76h430c13-35 41-64 77-76z m-625 76c23 0 41 19 41 42 0 23-18 41-41 41-23 0-42-18-42-41 0-23 19-42 42-42z m708 42c0-23-19-42-42-42-23 0-41 19-41 42 0 23 18 41 41 41 23 0 42-18 42-41z m-708-625c23 0 41 18 41 41 0 23-18 42-41 42-23 0-42-19-42-42 0-23 19-41 42-41z m708 41c0-23-19-41-42-41-23 0-41 18-41 41 0 23 18 42 41 42 23 0 42-19 42-42z" horiz-adv-x="1000" />

<glyph glyph-name="egg" unicode="&#xe8dc;" d="M125 267c0-221 166-375 375-375 209 0 375 154 375 375 0 252-177 541-375 541-198 0-375-289-375-541z m667 0c0-174-127-292-292-292-164 0-292 118-292 292 0 211 151 458 292 458 141 0 292-247 292-458z" horiz-adv-x="1000" />

<glyph glyph-name="eject" unicode="&#xe8dd;" d="M167 142c-34 0-53 37-35 64l333 500c17 25 53 25 70 0l333-500c19-27-1-64-35-64h-666z m589 83l-256 383-255-383h511z m-631-167v-83h750v83h-750z" horiz-adv-x="1000" />

<glyph glyph-name="elements" unicode="&#xe8de;" d="M833 308h-208c-46 0-83-37-83-83v-208c0-46 37-84 83-84h208c46 0 84 38 84 84v208c0 46-38 83-84 83z m-208-291v208h208v-208h-208z m-167 666v-666c0-46-37-84-83-84h-208c-46 0-84 38-84 84v666c0 46 38 84 84 84h208c46 0 83-38 83-84z m-83 0h-208v-666h208v666z m458 84h-208c-46 0-83-38-83-84v-208c0-46 37-83 83-83h208c46 0 84 37 84 83v208c0 46-38 84-84 84z m-208-292v208h208v-208h-208z" horiz-adv-x="1000" />

<glyph glyph-name="end-call" unicode="&#xe8df;" d="M500 475c-67 0-131-10-192-30v-129c0-16-9-31-23-38-41-20-78-46-111-77-7-7-18-11-29-11-12 0-22 4-30 12l-103 103c-7 7-12 18-12 29 0 12 5 22 12 30 127 120 299 194 488 194 189 0 361-74 488-194 7-8 12-18 12-30 0-11-5-22-12-29l-103-104c-8-7-18-12-30-12-11 0-22 5-29 12-33 31-71 57-111 77-14 7-24 21-24 37v130c-60 20-124 30-191 30z" horiz-adv-x="1000" />

<glyph glyph-name="equalizer" unicode="&#xe8e0;" d="M708 725v-83h250v83h-250z m-666-167v-83h250v83h-250z m0-250v84h250v-84h-250z m0-83v-83h250v83h-250z m0-167v-83h250v83h-250z m333-83v83h250v-83h-250z m0 250v-83h250v83h-250z m0 83v84h250v-84h-250z m333-250v-83h250v83h-250z m0 84v83h250v-83h-250z m0 250v-84h250v84h-250z m0 83v83h250v-83h-250z" horiz-adv-x="1000" />

<glyph glyph-name="ethereum" unicode="&#xe8e1;" d="M500 800l300-450-300-450-300 450 300 450z m-128-557l128-193 128 193-128-65-128 65z m-61 123l189 284 189-284-189-94-189 94z" horiz-adv-x="1000" />

<glyph glyph-name="euro-symbol" unicode="&#xe8e2;" d="M625 79c-105 0-195 59-240 146h240v83h-267c-3 14-4 28-4 42 0 14 1 28 4 42h267v83h-240c45 87 136 146 240 146 67 0 129-25 176-66l74 74c-66 60-154 96-250 96-163 0-302-105-353-250h-147v-83h128c-2-14-3-28-3-42 0-14 1-28 3-42h-128v-83h147c51-145 190-250 353-250 96 0 184 36 250 96l-74 74c-47-41-108-66-176-66z" horiz-adv-x="1000" />

<glyph glyph-name="external-link" unicode="&#xe8e3;" d="M488 279l304 304v-191h83v333h-333v-83h191l-304-304 59-59z m304-221v209h-84v-209h-500v500h209v84h-209c-46 0-83-38-83-84v-500c0-46 37-83 83-83h500c46 0 84 37 84 83z" horiz-adv-x="1000" />

<glyph glyph-name="eye-no" unicode="&#xe8e4;" d="M113 796l-59-59 169-169c-15-13-31-27-47-42-34-34-65-69-93-105-16-21-28-38-35-48l-14-23 14-22c7-10 19-27 35-49 28-36 59-71 93-105 102-98 210-157 324-157 72 0 141 23 209 66l178-179 59 59-833 833z m535-653l-63 63c-25-14-54-23-85-23-92 0-167 75-167 167 0 31 9 60 23 85l-73 74c-17-13-33-28-49-43-31-30-60-63-85-96-5-7-10-14-15-20 5-6 10-13 15-20 25-33 54-65 85-96 88-84 178-134 266-134 49 0 98 15 148 43z m-228 229c-2-7-3-14-3-22 0-46 37-83 83-83 8 0 15 1 22 3l-102 102z m417-184l-58 59c26 27 50 55 72 83 5 7 10 14 15 20-5 6-10 13-15 20-25 33-54 66-85 96-88 84-178 134-266 134-22 0-44-3-66-9l-66 66c43 17 87 26 132 26 114 0 222-59 324-157 34-34 65-69 93-105 17-21 28-38 35-48l14-23-14-22c-7-10-18-27-35-49-24-31-50-62-80-91z" horiz-adv-x="1000" />

<glyph glyph-name="eye" unicode="&#xe8e5;" d="M500 683c114 0 222-59 324-157 34-34 65-69 93-105 17-21 28-38 35-48l14-23-14-22c-7-10-18-27-35-49-28-36-59-71-93-105-102-98-210-157-324-157-114 0-222 59-324 157-34 34-65 69-93 105-16 22-28 39-35 49l-14 22 14 23c7 10 19 27 35 48 28 36 59 71 93 105 102 98 210 157 324 157z m351-313c-25 33-54 66-85 96-88 84-178 134-266 134-88 0-178-50-266-134-31-30-60-63-85-96-5-7-10-14-15-20 5-6 10-13 15-20 25-33 54-65 85-96 88-84 178-134 266-134 88 0 178 50 266 134 31 31 60 63 85 96 5 7 10 14 15 20-5 6-10 13-15 20z m-518-20c0-92 75-167 167-167 92 0 167 75 167 167 0 92-75 167-167 167-92 0-167-75-167-167z m250 0c0-46-37-83-83-83-46 0-83 37-83 83 0 46 37 83 83 83 46 0 83-37 83-83z" horiz-adv-x="1000" />

<glyph glyph-name="facebook" unicode="&#xe8e6;" d="M167 767h666c46 0 84-38 84-84v-666c0-46-38-84-84-84h-666c-46 0-84 38-84 84v666c0 46 38 84 84 84z m0-84v-666h666v666h-666z m297-333h78v-250h83v250h83v83h-83v42c0 23 19 42 42 42h41v83h-41c-69 0-125-56-125-125v-42h-78v-83z" horiz-adv-x="1000" />

<glyph glyph-name="file-checked" unicode="&#xe8e7;" d="M642 808h-434c-46 0-83-37-83-83v-750c0-46 37-83 83-83h584c46 0 83 37 83 83v601l-233 232z m-434-83h334v-167c0-46 37-83 83-83h167v-500h-584v750z m417-167v150l149-150h-149z m12-178l-179-179-95 95-59-59 154-154 238 238-59 59z" horiz-adv-x="1000" />

<glyph glyph-name="file-code" unicode="&#xe8e8;" d="M208 808h434l233-232v-601c0-46-37-83-83-83h-584c-46 0-83 37-83 83v750c0 46 37 83 83 83z m334-83h-334v-750h584v500h-167c-46 0-83 37-83 83v167z m83-17v-150h149l-149 150z m-137-495l-59-59-155 154 155 155 59-59-96-96 96-95z m238 12l-155 155-59-59 96-96-96-95 59-59 155 154z" horiz-adv-x="1000" />

<glyph glyph-name="file-create" unicode="&#xe8e9;" d="M542 725h-334v-750h417v-83h-417c-46 0-83 37-83 83v750c0 46 37 83 83 83h434l233-232v-309h-83v208h-167c-46 0-83 37-83 83v167z m250-667v84h83v-84h83v-83h-83v-83h-83v83h-84v83h84z m-167 650l149-150h-149v150z" horiz-adv-x="1000" />

<glyph glyph-name="file-delete" unicode="&#xe8ea;" d="M208 808h434l233-232v-601c0-46-37-83-83-83h-584c-46 0-83 37-83 83v750c0 46 37 83 83 83z m334-83h-334v-750h584v500h-167c-46 0-83 37-83 83v167z m83-17v-150h149l-149 150z m-279-346l59 59 95-95 96 95 59-59-96-95 96-96-59-59-96 96-95-96-59 59 95 96-95 95z" horiz-adv-x="1000" />

<glyph glyph-name="file-download" unicode="&#xe8eb;" d="M642 808h-434c-46 0-83-37-83-83v-750c0-46 37-83 83-83h584c46 0 83 37 83 83v601l-233 232z m-434-83h334v-167c0-46 37-83 83-83h167v-500h-584v750z m417-167v150l149-150h-149z m-167-125v-191l-53 54-59-59 154-154 155 154-59 59-54-54v191h-84z" horiz-adv-x="1000" />

<glyph glyph-name="file-draft" unicode="&#xe8ec;" d="M792 475v-83h83v184l-233 232h-434c-46 0-83-37-83-83v-333h83v333h334v-167c0-46 37-83 83-83h167z m0-167h83v-83h-83v83z m-584-416v83h-83c0-46 37-83 83-83z m167 83v-83h-83v83h83z m167-83v83h-84v-83h84z m166 83v-83h-83v83h83z m84 0h83c0-46-37-83-83-83v83z m-584 333v-83h-83v83h83z m667-166h-83v-84h83v84z m-667 0v-84h-83v84h83z m417 416v150l149-150h-149z" horiz-adv-x="1000" />

<glyph glyph-name="file-minus" unicode="&#xe8ed;" d="M642 808h-434c-46 0-83-37-83-83v-750c0-46 37-83 83-83h584c46 0 83 37 83 83v601l-233 232z m-434-83h334v-167c0-46 37-83 83-83h167v-500h-584v750z m417-167v150l149-150h-149z m-292-250v-83h334v83h-334z" horiz-adv-x="1000" />

<glyph glyph-name="file-plus" unicode="&#xe8ee;" d="M642 808h-434c-46 0-83-37-83-83v-750c0-46 37-83 83-83h584c46 0 83 37 83 83v601l-233 232z m-434-83h334v-167c0-46 37-83 83-83h167v-500h-584v750z m417-167v150l149-150h-149z m-167-125v-125h-125v-83h125v-125h84v125h125v83h-125v125h-84z" horiz-adv-x="1000" />

<glyph glyph-name="file-scan" unicode="&#xe8ef;" d="M208 808h434l233-232v-226h83v-83h-83-83-584-83-83v83h83v375c0 46 37 83 83 83z m0-458h584v125h-167c-46 0-83 37-83 83v167h-334v-375z m584-167h83v-208c0-46-37-83-83-83h-584c-46 0-83 37-83 83v208h83v-208h584v208z m-167 525v-150h149l-149 150z" horiz-adv-x="1000" />

<glyph glyph-name="file-shredder" unicode="&#xe8f0;" d="M792 308v167h-167c-46 0-83 37-83 83v167h-334v-417h-83v417c0 46 37 83 83 83h434l233-232v-268h-83z m-167 400v-150h149l-149 150z m333-441h-916v-84h916v84z m-750-375v250h84v-250h-84z m334 250v-250h83v250h-83z m-167-167v167h83v-167h-83z m333 167v-167h84v167h-84z" horiz-adv-x="1000" />

<glyph glyph-name="file-text" unicode="&#xe8f1;" d="M208 808h434l233-232v-601c0-46-37-83-83-83h-584c-46 0-83 37-83 83v750c0 46 37 83 83 83z m334-83h-334v-750h584v500h-167c-46 0-83 37-83 83v167z m83-17v-150h149l-149 150z m-292-566v83h250v-83h-250z m0 250v-84h334v84h-334z" horiz-adv-x="1000" />

<glyph glyph-name="file-upload" unicode="&#xe8f2;" d="M642 808h-434c-46 0-83-37-83-83v-750c0-46 37-83 83-83h584c46 0 83 37 83 83v601l-233 232z m-434-83h334v-167c0-46 37-83 83-83h167v-500h-584v750z m417-167v150l149-150h-149z m-83-458v191l54-54 59 59-155 155-154-155 59-59 53 54v-191h84z" horiz-adv-x="1000" />

<glyph glyph-name="file" unicode="&#xe8f3;" d="M208 808h434l233-232v-601c0-46-37-83-83-83h-584c-46 0-83 37-83 83v750c0 46 37 83 83 83z m334-83h-334v-750h584v500h-167c-46 0-83 37-83 83v167z m83-17v-150h149l-149 150z" horiz-adv-x="1000" />

<glyph glyph-name="filter" unicode="&#xe8f4;" d="M83 584l292-333v-357l250 94v263l292 333v99c0 46-38 84-84 84h-666c-46 0-84-38-84-84v-99z m750 99v-41h-666v41h666z m-616-125h566l-219-250h-128l-219 250z m241-333v-211l84 32v179h-84z" horiz-adv-x="1000" />

<glyph glyph-name="flag" unicode="&#xe8f5;" d="M292-108h-84-41v83h41v375 333 125h84v-41h588l-125-250 125-250h-588v-292h41v-83h-41z m0 458v333h453l-83-166 83-167h-453z" horiz-adv-x="1000" />

<glyph glyph-name="flame" unicode="&#xe8f6;" d="M466 370c22 32 20 65 4 126-31 120-19 185 89 263l53 38 12-64c14-67 36-109 93-189 2-4 2-4 4-7 82-116 112-185 112-312 0-154-155-292-333-292-178 0-333 138-333 292 0 3 0 3-1 16-4 98 15 175 88 258 16 17 33 34 53 50l44 36 21-53c16-38 34-69 54-91 18-19 31-43 40-71z m-150 73c-56-64-70-120-66-199 0-15 0-14 0-19 0-105 116-208 250-208 134 0 250 103 250 208 0 106-24 161-97 264-2 3-2 3-4 6-44 63-71 106-88 155-29-34-27-68-10-133 31-120 19-186-89-263l-61-45-5 76c-3 48-14 81-31 99-16 18-31 39-45 63-1-1-2-2-4-4z" horiz-adv-x="1000" />

<glyph glyph-name="flash-card" unicode="&#xe8f7;" d="M42 142h291v-84h417c115 0 208 94 208 209v166c0 115-93 209-208 209h-417v-84h-291v-416z m708 0h-333v416h333c69 0 125-56 125-125v-166c0-69-56-125-125-125z m-625 333v-250h208v250h-208z m167-83h-125v-84h125v84z" horiz-adv-x="1000" />

<glyph glyph-name="floppy" unicode="&#xe8f8;" d="M167 767h601l149-153v-597c0-46-38-84-84-84h-666c-46 0-84 38-84 84v666c0 46 38 84 84 84z m565-84h-24v-250h-416v250h-125v-666h83v333h500v-333h83v563l-101 103z m-357-166v166h250v-166h-250z m-42-250v-250h334v250h-334z m250 375h-83v-84h83v84z" horiz-adv-x="1000" />

<glyph glyph-name="folder-arrow" unicode="&#xe8f9;" d="M875 642c46 0 83-38 83-84v-500c0-46-37-83-83-83h-750c-46 0-83 37-83 83v584c0 46 37 83 83 83h250c47 0 76-20 106-57 1-1 3-4 5-7l0 0c3-4 7-9 8-10 2-2 3-3 4-4l0 0c3-5 4-5 2-5h375z m0-584v500l-375 0c-30 1-50 15-71 41-1 2-6 8-9 12l0 0 0 0c-2 2-4 4-4 5-16 20-25 26-41 26h-250v-584h750z m-500 209h274l-95-96 59-59 196 196-196 197-59-59 95-96h-274v-83z" horiz-adv-x="1000" />

<glyph glyph-name="folder-checked" unicode="&#xe8fa;" d="M875 642c46 0 83-38 83-84v-500c0-46-37-83-83-83h-750c-46 0-83 37-83 83v584c0 46 37 83 83 83h250c47 0 76-20 106-57 1-1 3-4 5-7l0 0c3-4 7-9 8-10 2-2 3-3 4-4l0 0c3-5 4-5 2-5h375z m0-584v500l-375 0c-30 1-50 15-71 41-1 2-6 8-9 12l0 0 0 0c-2 2-4 4-4 5-16 20-25 26-41 26h-250v-584h750z m-238 405l-179-179-95 96-59-59 154-155 238 238-59 59z" horiz-adv-x="1000" />

<glyph glyph-name="folder-cloud" unicode="&#xe8fb;" d="M875 642c46 0 83-38 83-84v-500c0-46-37-83-83-83h-750c-46 0-83 37-83 83v584c0 46 37 83 83 83h250c47 0 76-20 106-57 1-1 3-4 5-7l0 0c3-4 7-9 8-10 2-2 3-3 4-4l0 0c3-5 4-5 2-5h375z m0-584v500l-375 0c-30 1-50 15-71 41-1 2-6 8-9 12l0 0 0 0c-2 2-4 4-4 5-16 20-25 26-41 26h-250v-584h750z m-206 344c-27 67-92 115-169 115-60 0-115-30-149-78-59-21-101-78-101-145 0-83 66-152 150-152h217c74 0 133 61 133 135 0 56-33 104-81 125z m-52-177h-217c-37 0-67 31-67 69 0 39 30 70 67 70 2 0 4 0 6 0 13 40 50 69 94 69 55 0 100-46 100-104 0-1 0-2 0-3 5 2 11 3 17 3 27 0 50-23 50-52 0-29-23-52-50-52z" horiz-adv-x="1000" />

<glyph glyph-name="folder-create" unicode="&#xe8fc;" d="M958 558c0 46-37 84-83 84h-375c2 0 1 0-2 5l0 0c-1 1-2 2-4 4-1 1-5 6-8 10l0 0c-2 3-4 6-5 7-30 37-59 57-106 57h-250c-46 0-83-37-83-83v-584c0-46 37-83 83-83h458v83h-458v334h750v-167h83v333z m-83-83v83l-375 0c-30 1-50 15-71 41-1 2-6 8-9 12l0 0 0 0 0 0 0 0c-2 2-4 4-4 5-16 20-25 26-41 26h-250v-167h750z m-167-500v83h84v84h83v-84h83v-83h-83v-83h-83v83h-84z" horiz-adv-x="1000" />

<glyph glyph-name="folder-delete" unicode="&#xe8fd;" d="M875 642c46 0 83-38 83-84v-500c0-46-37-83-83-83h-750c-46 0-83 37-83 83v584c0 46 37 83 83 83h250c47 0 76-20 106-57 1-1 3-4 5-7l0 0c3-4 7-9 8-10 2-2 3-3 4-4l0 0c3-5 4-5 2-5h375z m0-584v500l-375 0c-30 1-50 15-71 41-1 2-6 8-9 12l0 0 0 0c-2 2-4 4-4 5-16 20-25 26-41 26h-250v-584h750z m-279 405l-96-96-95 96-59-59 95-96-95-95 59-59 95 95 96-95 59 59-96 95 96 96-59 59z" horiz-adv-x="1000" />

<glyph glyph-name="folder-minus" unicode="&#xe8fe;" d="M875 642c46 0 83-38 83-84v-500c0-46-37-83-83-83h-750c-46 0-83 37-83 83v584c0 46 37 83 83 83h250c47 0 76-20 106-57 1-1 3-4 5-7l0 0c3-4 7-9 8-10 2-2 3-3 4-4l0 0c3-5 4-5 2-5h375z m0-584v500l-375 0c-30 1-50 15-71 41-1 2-6 8-9 12l0 0 0 0c-2 2-4 4-4 5-16 20-25 26-41 26h-250v-584h750z m-542 292v-83h334v83h-334z" horiz-adv-x="1000" />

<glyph glyph-name="folder-music" unicode="&#xe8ff;" d="M958 558c0 46-37 84-83 84h-375c2 0 1 0-2 5-1 1-2 2-4 4-1 1-5 6-8 10-2 3-4 6-5 7-30 37-59 57-106 57h-250c-46 0-83-37-83-83v-584c0-46 37-83 83-83h750c46 0 83 37 83 83v500z m-83 0v-500h-750v584h250c16 0 25-6 41-26 0-1 2-3 4-5 3-4 8-10 9-12 21-26 41-40 71-41l375 0z m-375-255v208l190-126-46-70-61 41v-152c0-60-58-104-125-104-66 0-125 44-125 104 0 61 59 104 125 104 15 0 29-2 42-5z m-42-120c26 0 42 13 42 21 0 9-16 21-42 21-25 0-41-12-41-21 0-8 16-21 41-21z" horiz-adv-x="1000" />

</font>
</defs>
</svg>
