<svg width="48" height="48" viewBox="0 0 48 48" fill="none" xmlns="http://www.w3.org/2000/svg">
<g clip-path="url(#clip0)">
<path d="M37.7246 10C37.7889 10.1081 37.8043 10.2253 37.8043 10.3502C37.8027 14.0881 37.8027 17.8245 37.8027 21.5624C37.8027 21.6035 37.8043 21.6431 37.7997 21.6842C37.7859 21.8334 37.746 21.873 37.5989 21.8836C37.5514 21.8867 37.5038 21.8852 37.4563 21.8852C36.3773 21.8852 35.2997 21.8852 34.2207 21.8852C33.8543 21.8852 33.8543 21.8852 33.8543 21.5091C33.8543 19.1461 33.8543 16.7815 33.8543 14.4185C33.8543 14.3378 33.8574 14.2556 33.8482 14.1764C33.8329 14.0409 33.7762 13.9846 33.6428 13.9678C33.583 13.9602 33.5202 13.9617 33.4604 13.9617C27.0918 13.9617 20.7217 13.9617 14.353 13.9617C14.3193 13.9617 14.2856 13.9617 14.2519 13.9617C14.048 13.9693 13.999 14.0165 13.9913 14.2145C13.9882 14.2815 13.9898 14.3485 13.9898 14.417C13.9898 16.7876 13.9898 19.1582 13.9898 21.5289C13.9898 21.8852 13.9898 21.8852 13.625 21.8852C12.5337 21.8852 11.4408 21.8852 10.3495 21.8852C10.2253 21.8852 10.1042 21.8852 10.0015 21.8029C10 17.8686 10 13.9343 10 10C19.241 10 28.4836 10 37.7246 10Z" fill="#005DE8"/>
<path d="M10 25.9656C10.0858 25.9017 10.1809 25.8834 10.2866 25.8834C11.4331 25.8849 12.5796 25.8834 13.7261 25.8849C13.9607 25.8849 13.9882 25.9154 13.9882 26.1605C13.9898 27.3527 13.9882 28.5449 13.9882 29.737C13.9882 30.949 13.9882 32.161 13.9882 33.3745C13.9882 33.4354 13.9867 33.4963 13.9898 33.5556C13.999 33.7521 14.048 33.7993 14.2519 33.8069C14.327 33.8099 14.4006 33.8084 14.4757 33.8084C19.4617 33.8084 24.4478 33.8084 29.4323 33.8084C29.5136 33.8084 29.5963 33.8053 29.676 33.813C29.7971 33.8251 29.8416 33.8708 29.8584 33.9911C29.8646 34.0383 29.863 34.0855 29.863 34.1327C29.863 35.2366 29.863 36.3419 29.8646 37.4458C29.8646 37.5707 29.8615 37.6894 29.7435 37.7686C23.1664 37.7686 16.5893 37.7686 9.99847 37.7686C10 33.8343 10 29.9 10 25.9656Z" fill="#005DE8"/>
<path d="M33.9386 37.7686C33.8773 37.7077 33.8528 37.6331 33.8559 37.5478C33.8574 37.4808 33.8559 37.4138 33.8559 37.3453C33.8559 34.9945 33.8559 32.6451 33.8559 30.2943C33.8559 30.2075 33.8589 30.1177 33.8467 30.0324C33.8252 29.8817 33.7562 29.8208 33.6045 29.8101C33.5233 29.804 33.442 29.8071 33.3608 29.8071C28.3686 29.8071 23.3764 29.8071 18.3842 29.8071C18.303 29.8071 18.2217 29.8071 18.1405 29.8025C18.0439 29.7979 17.9918 29.7462 17.9857 29.6503C17.9826 29.597 17.9811 29.5422 17.9811 29.4889C17.9811 28.3972 17.9811 27.307 17.9811 26.2153C17.9811 25.8941 17.9903 25.8834 18.3106 25.8834C24.693 25.8834 31.077 25.8834 37.4594 25.8834C37.4655 25.8834 37.4732 25.8834 37.4793 25.8834C37.7797 25.8849 37.8043 25.9078 37.8043 26.2062C37.8043 29.9441 37.8043 33.682 37.8058 37.4184C37.8058 37.5493 37.7981 37.6757 37.6862 37.7671C36.4355 37.7686 35.1863 37.7686 33.9386 37.7686Z" fill="#005DE8"/>
<path d="M23.9451 17.9615C25.7966 17.9615 27.6467 17.9615 29.4982 17.9615C29.8538 17.9615 29.8646 17.9721 29.8646 18.3239C29.8646 19.3942 29.8646 20.4646 29.8646 21.535C29.8646 21.873 29.8508 21.8852 29.5074 21.8852C25.7844 21.8852 22.0628 21.8852 18.3398 21.8852C17.9811 21.8852 17.9811 21.8852 17.9796 21.5228C17.9796 20.4463 17.9796 19.3683 17.9796 18.2919C17.9796 17.9721 17.9887 17.9615 18.3106 17.9615C20.1883 17.96 22.0659 17.9615 23.9451 17.9615Z" fill="#005DE8"/>
</g>
<defs>
<clipPath id="clip0">
<rect width="28" height="28" fill="white" transform="translate(10 10)"/>
</clipPath>
</defs>
</svg>
